<?xml version="1.0" encoding="UTF-8"?>
<svg id="Layer_1" data-name="Layer 1" xmlns="http://www.w3.org/2000/svg" viewBox="0 0 567.39 146.07">
  <defs>
    <style>
      .cls-1 {
        fill: #73b26a;
      }

      .cls-2 {
        fill: #2e5b7f;
      }

      .cls-3 {
        fill: #ee7523;
      }

      .cls-4 {
        fill: #f17b24;
      }

      .cls-5 {
        fill: #24567d;
      }

      .cls-6 {
        fill: #56b74a;
      }

      .cls-7 {
        fill: #4ab249;
      }

      .cls-8 {
        fill: #e18c50;
      }

      .cls-9 {
        fill: #1d1f4d;
      }
    </style>
  </defs>
  <g>
    <g>
      <path class="cls-9" d="M242.16,49.32l13.73-34.1h5.38l13.68,34.1h-7.03l-10.57-27.99h2.42l-10.72,27.99h-6.89ZM249.44,42.97v-5.53h18.33v5.53h-18.33Z"/>
      <path class="cls-9" d="M288.87,48.69c-2.1,0-3.99-.51-5.67-1.53-1.68-1.02-3-2.42-3.95-4.2-.95-1.78-1.43-3.77-1.43-5.97s.48-4.17,1.43-5.92c.95-1.75,2.27-3.13,3.95-4.15,1.68-1.02,3.57-1.53,5.67-1.53,1.75,0,3.29.34,4.63,1.02,1.34.68,2.4,1.61,3.18,2.79.78,1.18,1.2,2.56,1.26,4.15v7.37c-.06,1.55-.49,2.93-1.28,4.15-.79,1.21-1.86,2.15-3.2,2.81s-2.87.99-4.58.99ZM289.16,59.7c-2.49,0-4.69-.44-6.6-1.33-1.91-.89-3.43-2.14-4.56-3.76l4.03-4.03c.9,1.07,1.92,1.88,3.03,2.45,1.12.57,2.47.85,4.05.85,1.97,0,3.53-.5,4.68-1.5,1.15-1,1.72-2.39,1.72-4.17v-5.87l1.07-5.14-1.02-5.14v-6.16h6.31v22.21c0,2.33-.54,4.36-1.62,6.09-1.08,1.73-2.58,3.08-4.49,4.05-1.91.97-4.11,1.45-6.6,1.45ZM290.13,42.92c1.16,0,2.17-.25,3.03-.75.86-.5,1.53-1.2,2.01-2.09.49-.89.73-1.9.73-3.03s-.24-2.18-.73-3.06c-.49-.87-1.16-1.56-2.01-2.06-.86-.5-1.87-.75-3.03-.75s-2.18.25-3.05.75c-.87.5-1.55,1.2-2.04,2.09-.49.89-.73,1.9-.73,3.03s.24,2.09.73,2.98c.49.89,1.16,1.59,2.04,2.11.87.52,1.89.78,3.05.78Z"/>
      <path class="cls-9" d="M319.18,49.81c-2.13,0-4.06-.53-5.77-1.6-1.71-1.07-3.06-2.52-4.03-4.37-.97-1.84-1.46-3.91-1.46-6.21s.49-4.41,1.46-6.26c.97-1.84,2.31-3.3,4.03-4.37,1.71-1.07,3.64-1.6,5.77-1.6,1.68,0,3.18.34,4.51,1.02s2.38,1.62,3.18,2.84c.79,1.21,1.22,2.58,1.29,4.1v8.44c-.06,1.55-.49,2.93-1.29,4.12-.79,1.2-1.85,2.14-3.18,2.84s-2.83,1.04-4.51,1.04ZM320.35,43.94c1.78,0,3.22-.59,4.32-1.77,1.1-1.18,1.65-2.71,1.65-4.58,0-1.23-.25-2.32-.75-3.27-.5-.95-1.2-1.7-2.09-2.23-.89-.53-1.93-.8-3.13-.8s-2.19.27-3.08.8-1.58,1.28-2.09,2.23c-.5.95-.75,2.05-.75,3.27s.25,2.37.75,3.32c.5.96,1.2,1.7,2.09,2.23.89.53,1.92.8,3.08.8ZM325.97,49.32v-6.31l1.02-5.72-1.02-5.63v-5.77h6.31v23.43h-6.31Z"/>
      <path class="cls-9" d="M339.84,49.32v-23.43h6.35v23.43h-6.35ZM346.2,36.37l-2.47-1.65c.29-2.88,1.13-5.15,2.52-6.81,1.39-1.67,3.39-2.5,6.01-2.5,1.13,0,2.15.19,3.06.56.9.37,1.73.98,2.47,1.82l-3.98,4.56c-.36-.39-.78-.68-1.29-.87s-1.07-.29-1.72-.29c-1.36,0-2.47.43-3.32,1.29s-1.29,2.16-1.29,3.9Z"/>
      <path class="cls-9" d="M368.07,49.32l-8.78-23.43h6.4l5.72,17.02-1.94.05,5.87-17.07h4.61l5.87,17.07-1.94-.05,5.72-17.02h6.4l-8.73,23.43h-4.61l-5.92-16.2h1.79l-5.92,16.2h-4.56Z"/>
      <path class="cls-9" d="M410.31,49.81c-2.13,0-4.06-.53-5.77-1.6-1.71-1.07-3.06-2.52-4.03-4.37-.97-1.84-1.46-3.91-1.46-6.21s.49-4.41,1.46-6.26c.97-1.84,2.31-3.3,4.03-4.37,1.71-1.07,3.64-1.6,5.77-1.6,1.68,0,3.18.34,4.51,1.02,1.33.68,2.38,1.62,3.18,2.84.79,1.21,1.22,2.58,1.29,4.1v8.44c-.06,1.55-.49,2.93-1.29,4.12-.79,1.2-1.85,2.14-3.18,2.84-1.33.69-2.83,1.04-4.51,1.04ZM411.48,43.94c1.78,0,3.22-.59,4.32-1.77,1.1-1.18,1.65-2.71,1.65-4.58,0-1.23-.25-2.32-.75-3.27-.5-.95-1.2-1.7-2.09-2.23-.89-.53-1.93-.8-3.13-.8s-2.19.27-3.08.8-1.58,1.28-2.09,2.23-.75,2.05-.75,3.27.25,2.37.75,3.32c.5.96,1.2,1.7,2.09,2.23.89.53,1.92.8,3.08.8ZM417.1,49.32v-6.31l1.02-5.72-1.02-5.63v-5.77h6.31v23.43h-6.31Z"/>
      <path class="cls-9" d="M430.98,49.32V14.25h6.35v35.07h-6.35Z"/>
      <path class="cls-9" d="M242.26,73.76v-5.87h28.37v5.87h-28.37ZM253.12,101.99v-33.37h6.64v33.37h-6.64Z"/>
      <path class="cls-9" d="M279.65,74.78c-1.04,0-1.89-.35-2.57-1.04-.68-.69-1.02-1.56-1.02-2.6s.34-1.86,1.02-2.57c.68-.71,1.54-1.07,2.57-1.07s1.93.36,2.59,1.07c.66.71.99,1.57.99,2.57s-.33,1.9-.99,2.6c-.66.7-1.53,1.04-2.59,1.04ZM276.45,101.99v-23.43h6.4v23.43h-6.4Z"/>
      <path class="cls-9" d="M290.42,101.99v-35.07h6.35v17.41l-1.07,5.63,1.02,5.72v6.31h-6.3ZM303.42,102.47c-1.68,0-3.2-.36-4.56-1.07-1.36-.71-2.44-1.68-3.25-2.91-.81-1.23-1.24-2.6-1.31-4.12v-8.34c.06-1.52.51-2.89,1.33-4.1.82-1.21,1.92-2.16,3.27-2.84,1.36-.68,2.86-1.02,4.51-1.02,2.17,0,4.11.53,5.82,1.6,1.71,1.07,3.06,2.52,4.05,4.37.99,1.84,1.48,3.93,1.48,6.26s-.49,4.36-1.48,6.21c-.99,1.84-2.34,3.3-4.05,4.37-1.71,1.07-3.65,1.6-5.82,1.6ZM302.35,96.6c1.16,0,2.19-.27,3.08-.8.89-.53,1.58-1.28,2.09-2.23.5-.95.75-2.06.75-3.32s-.25-2.32-.75-3.27c-.5-.95-1.21-1.7-2.11-2.23-.91-.53-1.94-.8-3.1-.8s-2.19.27-3.08.8c-.89.53-1.59,1.28-2.09,2.23-.5.95-.75,2.05-.75,3.27s.25,2.37.75,3.32c.5.96,1.2,1.7,2.11,2.23.9.53,1.94.8,3.1.8Z"/>
      <path class="cls-9" d="M320.88,101.99v-23.43h6.35v23.43h-6.35ZM327.23,89.04l-2.47-1.65c.29-2.88,1.13-5.15,2.52-6.81,1.39-1.67,3.39-2.5,6.01-2.5,1.13,0,2.15.19,3.06.56.9.37,1.73.98,2.47,1.82l-3.98,4.56c-.36-.39-.78-.68-1.29-.87s-1.07-.29-1.72-.29c-1.36,0-2.47.43-3.32,1.29s-1.29,2.16-1.29,3.9Z"/>
      <path class="cls-9" d="M353.57,102.47c-2.46,0-4.64-.53-6.55-1.58-1.91-1.05-3.42-2.5-4.53-4.34-1.12-1.84-1.67-3.95-1.67-6.31s.54-4.41,1.62-6.23c1.08-1.83,2.56-3.28,4.44-4.37,1.87-1.08,3.96-1.62,6.26-1.62s4.26.51,5.99,1.53c1.73,1.02,3.09,2.41,4.07,4.17.99,1.76,1.48,3.76,1.48,5.99,0,.42-.02.85-.07,1.29-.05.44-.14.93-.27,1.48l-19.69.05v-4.75l16.73-.05-2.57,1.99c-.06-1.39-.32-2.55-.75-3.49-.44-.94-1.07-1.66-1.89-2.16-.82-.5-1.84-.75-3.03-.75-1.26,0-2.36.28-3.3.85-.94.57-1.66,1.36-2.16,2.38-.5,1.02-.75,2.22-.75,3.61s.27,2.66.8,3.71c.53,1.05,1.3,1.86,2.3,2.43,1,.57,2.17.85,3.49.85,1.2,0,2.28-.2,3.25-.61.97-.4,1.81-1.01,2.52-1.82l3.73,3.73c-1.13,1.33-2.51,2.33-4.15,3.01-1.63.68-3.4,1.02-5.31,1.02Z"/>
      <path class="cls-9" d="M376.51,101.99l-8.78-23.43h6.4l5.72,17.02-1.94.05,5.87-17.07h4.61l5.87,17.07-1.94-.05,5.72-17.02h6.4l-8.73,23.43h-4.61l-5.92-16.2h1.79l-5.92,16.2h-4.56Z"/>
      <path class="cls-9" d="M418.75,102.47c-2.13,0-4.06-.53-5.77-1.6-1.71-1.07-3.06-2.52-4.03-4.37-.97-1.84-1.46-3.91-1.46-6.21s.49-4.41,1.46-6.26c.97-1.84,2.31-3.3,4.03-4.37,1.71-1.07,3.64-1.6,5.77-1.6,1.68,0,3.18.34,4.51,1.02,1.33.68,2.38,1.62,3.18,2.84.79,1.21,1.22,2.58,1.29,4.1v8.44c-.06,1.55-.49,2.93-1.29,4.12-.79,1.2-1.85,2.14-3.18,2.84s-2.83,1.04-4.51,1.04ZM419.92,96.6c1.78,0,3.22-.59,4.32-1.77,1.1-1.18,1.65-2.71,1.65-4.58,0-1.23-.25-2.32-.75-3.27-.5-.95-1.2-1.7-2.09-2.23s-1.93-.8-3.13-.8-2.19.27-3.08.8-1.58,1.28-2.09,2.23-.75,2.05-.75,3.27.25,2.37.75,3.32c.5.96,1.2,1.7,2.09,2.23s1.92.8,3.08.8ZM425.54,101.99v-6.31l1.02-5.72-1.02-5.63v-5.77h6.31v23.43h-6.31Z"/>
      <path class="cls-9" d="M439.41,101.99v-35.07h6.35v35.07h-6.35Z"/>
      <path class="cls-9" d="M475.64,102.47c-2.33,0-4.36-.45-6.09-1.36-1.73-.91-3.07-2.14-4.03-3.71-.96-1.57-1.43-3.35-1.43-5.36s.56-3.93,1.67-5.58c1.12-1.65,2.77-2.99,4.97-4.03l2.86,4.07c-1.1.52-1.93,1.2-2.5,2.06-.57.86-.85,1.92-.85,3.18,0,.97.23,1.82.68,2.55.45.73,1.1,1.29,1.94,1.7s1.81.61,2.91.61c1.39,0,2.55-.29,3.49-.87.94-.58,1.68-1.33,2.23-2.23l4.27,4.66c-.65.78-1.49,1.49-2.52,2.13-1.04.65-2.2,1.17-3.49,1.58-1.29.4-2.67.61-4.12.61ZM487.04,101.99l-15.91-17.46c-1.2-1.32-2.09-2.59-2.67-3.81-.58-1.21-.87-2.55-.87-4,0-1.71.43-3.28,1.29-4.71.86-1.42,2.04-2.55,3.54-3.39,1.5-.84,3.23-1.26,5.17-1.26,1.52,0,2.88.23,4.07.7s2.24,1.07,3.13,1.82c.89.74,1.61,1.54,2.16,2.38l-4.36,4.07c-.68-.94-1.41-1.67-2.18-2.21-.78-.53-1.68-.8-2.72-.8-1.1,0-2.02.32-2.76.97-.74.65-1.12,1.45-1.12,2.42,0,.91.19,1.67.58,2.3.39.63.92,1.35,1.6,2.16l18.58,20.81h-7.52Z"/>
      <path class="cls-9" d="M525.69,102.47c-2.49,0-4.8-.44-6.94-1.33-2.13-.89-4-2.13-5.6-3.73-1.6-1.6-2.83-3.47-3.69-5.6-.86-2.13-1.29-4.43-1.29-6.89s.43-4.75,1.29-6.89c.86-2.13,2.08-3.99,3.69-5.58,1.6-1.58,3.46-2.83,5.58-3.73,2.12-.9,4.44-1.36,6.96-1.36,2.72,0,5.11.44,7.18,1.33s3.9,2.11,5.48,3.66l-4.46,4.46c-.94-1.03-2.09-1.84-3.44-2.42-1.36-.58-2.94-.87-4.75-.87-1.58,0-3.03.27-4.34.8-1.31.53-2.45,1.31-3.42,2.33-.97,1.02-1.71,2.23-2.23,3.64-.52,1.41-.78,2.95-.78,4.63s.26,3.27.78,4.66c.52,1.39,1.26,2.6,2.23,3.61.97,1.02,2.11,1.8,3.42,2.35,1.31.55,2.76.82,4.34.82,1.91,0,3.55-.29,4.92-.87,1.37-.58,2.53-1.41,3.47-2.47l4.46,4.46c-1.59,1.59-3.43,2.81-5.53,3.69-2.1.87-4.54,1.31-7.32,1.31Z"/>
      <path class="cls-9" d="M554.84,102.47c-2.36,0-4.49-.54-6.38-1.62-1.89-1.08-3.4-2.55-4.51-4.41-1.12-1.86-1.67-3.94-1.67-6.23s.55-4.36,1.65-6.18c1.1-1.83,2.6-3.28,4.51-4.37,1.91-1.08,4.03-1.62,6.35-1.62s4.53.54,6.43,1.62c1.89,1.08,3.39,2.54,4.49,4.37,1.1,1.83,1.65,3.89,1.65,6.18s-.55,4.37-1.65,6.23c-1.1,1.86-2.6,3.33-4.49,4.41s-4.02,1.62-6.38,1.62ZM554.8,96.56c1.2,0,2.25-.27,3.18-.8.92-.53,1.63-1.28,2.13-2.23.5-.95.75-2.04.75-3.27s-.26-2.31-.78-3.25c-.52-.94-1.23-1.67-2.13-2.21-.91-.53-1.96-.8-3.15-.8s-2.2.27-3.1.8c-.91.53-1.62,1.27-2.13,2.21-.52.94-.78,2.02-.78,3.25s.26,2.32.78,3.27c.52.95,1.23,1.7,2.13,2.23.9.53,1.94.8,3.1.8Z"/>
    </g>
    <g>
      <path class="cls-7" d="M247.63,130.41c-.78,0-1.51-.14-2.18-.42-.67-.28-1.26-.67-1.76-1.17-.5-.5-.89-1.09-1.16-1.76-.27-.67-.4-1.39-.4-2.16s.13-1.49.4-2.16c.27-.67.65-1.25,1.16-1.75s1.09-.89,1.75-1.17c.67-.28,1.39-.43,2.19-.43.85,0,1.61.14,2.25.42.65.28,1.22.66,1.72,1.15l-1.4,1.4c-.29-.32-.65-.58-1.08-.76s-.92-.27-1.49-.27c-.5,0-.95.08-1.36.25s-.77.41-1.07.73c-.3.32-.54.7-.7,1.14s-.24.93-.24,1.45.08,1.03.24,1.46.4.81.7,1.13c.3.32.66.57,1.07.74s.87.26,1.36.26c.6,0,1.12-.09,1.55-.27s.79-.44,1.09-.78l1.4,1.4c-.5.5-1.08.88-1.74,1.16-.66.27-1.43.41-2.3.41Z"/>
      <path class="cls-7" d="M259.21,130.25v-10.71h2.07v10.71h-2.07ZM260.52,125.64v-1.83h5.99v1.83h-5.99ZM265.93,130.25v-10.71h2.07v10.71h-2.07Z"/>
      <path class="cls-7" d="M275.49,130.25l4.31-10.71h1.69l4.3,10.71h-2.21l-3.32-8.79h.76l-3.37,8.79h-2.16ZM277.78,128.26v-1.74h5.76v1.74h-5.76Z"/>
      <path class="cls-7" d="M293.15,130.25v-10.71h2.07v10.71h-2.07ZM294.67,125.77v-1.61h2.48c.51,0,.9-.13,1.18-.39s.42-.62.42-1.07c0-.42-.14-.76-.42-1.04s-.67-.42-1.18-.42h-2.48v-1.69h2.67c.69,0,1.3.13,1.82.4.52.27.93.64,1.22,1.11.29.47.43,1,.43,1.61s-.14,1.18-.43,1.64c-.29.46-.7.82-1.23,1.08s-1.14.39-1.84.39h-2.64ZM299,130.25l-3.53-4.63,1.9-.59,4.14,5.23h-2.51Z"/>
      <path class="cls-7" d="M307.58,121.39v-1.84h8.91v1.84h-8.91ZM310.99,130.25v-10.48h2.09v10.48h-2.09Z"/>
      <path class="cls-7" d="M324.02,130.25v-10.71h2.07v10.71h-2.07ZM325.54,121.37v-1.83h5.85v1.83h-5.85ZM325.54,125.67v-1.77h5.39v1.77h-5.39ZM325.54,130.25v-1.83h5.93v1.83h-5.93Z"/>
      <path class="cls-7" d="M339.28,130.25v-10.71h2.07v10.71h-2.07ZM340.8,125.77v-1.61h2.48c.51,0,.9-.13,1.18-.39s.42-.62.42-1.07c0-.42-.14-.76-.42-1.04s-.67-.42-1.18-.42h-2.48v-1.69h2.67c.69,0,1.3.13,1.82.4.52.27.93.64,1.22,1.11.29.47.43,1,.43,1.61s-.14,1.18-.43,1.64c-.29.46-.7.82-1.23,1.08s-1.14.39-1.84.39h-2.64ZM345.13,130.25l-3.53-4.63,1.9-.59,4.14,5.23h-2.51Z"/>
      <path class="cls-7" d="M354.91,130.25v-10.71h2.07v10.71h-2.07ZM356.43,121.37v-1.83h5.85v1.83h-5.85ZM356.43,125.67v-1.77h5.39v1.77h-5.39ZM356.43,130.25v-1.83h5.93v1.83h-5.93Z"/>
      <path class="cls-7" d="M370.18,130.25v-10.71h2.07v10.71h-2.07ZM371.59,130.25v-1.84h2.73c.69,0,1.29-.14,1.81-.43.52-.29.92-.7,1.21-1.23.29-.53.43-1.15.43-1.87s-.15-1.31-.44-1.84c-.29-.52-.7-.93-1.22-1.22-.52-.29-1.12-.43-1.8-.43h-2.77v-1.84h2.8c.79,0,1.53.13,2.2.4.68.26,1.26.64,1.77,1.12.5.48.89,1.05,1.17,1.7.28.65.42,1.36.42,2.13s-.14,1.49-.42,2.14c-.28.66-.67,1.22-1.17,1.71-.5.48-1.08.85-1.76,1.12-.68.26-1.4.4-2.19.4h-2.79Z"/>
      <path class="cls-7" d="M395.5,130.25l4.31-10.71h1.69l4.3,10.71h-2.21l-3.32-8.79h.76l-3.37,8.79h-2.16ZM397.78,128.26v-1.74h5.76v1.74h-5.76Z"/>
      <path class="cls-7" d="M417.51,130.41c-.78,0-1.51-.14-2.18-.42-.67-.28-1.26-.67-1.76-1.17-.5-.5-.89-1.09-1.16-1.76-.27-.67-.4-1.39-.4-2.16s.13-1.49.4-2.16c.27-.67.65-1.25,1.16-1.75.5-.5,1.09-.89,1.75-1.17.67-.28,1.39-.43,2.19-.43.85,0,1.61.14,2.25.42.65.28,1.22.66,1.72,1.15l-1.4,1.4c-.29-.32-.65-.58-1.08-.76s-.92-.27-1.49-.27c-.5,0-.95.08-1.36.25s-.77.41-1.07.73c-.3.32-.54.7-.7,1.14s-.24.93-.24,1.45.08,1.03.24,1.46.4.81.7,1.13c.3.32.66.57,1.07.74s.87.26,1.36.26c.6,0,1.12-.09,1.55-.27s.79-.44,1.09-.78l1.4,1.4c-.5.5-1.08.88-1.74,1.16-.66.27-1.43.41-2.3.41Z"/>
      <path class="cls-7" d="M433.63,130.41c-.78,0-1.51-.14-2.18-.42-.67-.28-1.26-.67-1.76-1.17-.5-.5-.89-1.09-1.16-1.76-.27-.67-.4-1.39-.4-2.16s.13-1.49.4-2.16c.27-.67.65-1.25,1.16-1.75.5-.5,1.09-.89,1.75-1.17.67-.28,1.39-.43,2.19-.43.85,0,1.61.14,2.25.42.65.28,1.22.66,1.72,1.15l-1.4,1.4c-.29-.32-.65-.58-1.08-.76s-.92-.27-1.49-.27c-.5,0-.95.08-1.36.25s-.77.41-1.07.73c-.3.32-.54.7-.7,1.14s-.24.93-.24,1.45.08,1.03.24,1.46.4.81.7,1.13c.3.32.66.57,1.07.74s.87.26,1.36.26c.6,0,1.12-.09,1.55-.27s.79-.44,1.09-.78l1.4,1.4c-.5.5-1.08.88-1.74,1.16-.66.27-1.43.41-2.3.41Z"/>
      <path class="cls-7" d="M449.79,130.42c-.78,0-1.51-.14-2.19-.43-.67-.28-1.26-.68-1.77-1.18-.5-.5-.9-1.09-1.18-1.77-.28-.67-.43-1.4-.43-2.17s.14-1.49.42-2.16c.28-.66.67-1.25,1.17-1.75s1.09-.89,1.76-1.17c.67-.28,1.4-.42,2.18-.42s1.52.14,2.2.42c.67.28,1.26.67,1.76,1.17s.9,1.09,1.18,1.76.43,1.39.43,2.16-.14,1.49-.43,2.16c-.28.67-.68,1.26-1.18,1.76-.5.5-1.09.9-1.75,1.18-.67.28-1.39.43-2.17.43ZM449.76,128.49c.69,0,1.29-.15,1.8-.46.51-.3.91-.73,1.2-1.27.29-.54.43-1.17.43-1.89,0-.53-.08-1.01-.24-1.45s-.4-.82-.7-1.14c-.3-.32-.66-.57-1.08-.74s-.88-.26-1.4-.26c-.67,0-1.26.15-1.77.45s-.91.72-1.2,1.26c-.29.54-.43,1.16-.43,1.87,0,.54.08,1.03.25,1.48.17.45.4.83.7,1.14.3.32.66.56,1.08.73s.88.26,1.38.26Z"/>
      <path class="cls-7" d="M467.28,130.41c-.84,0-1.59-.19-2.25-.56-.66-.37-1.17-.88-1.55-1.53-.38-.65-.56-1.39-.56-2.21v-6.57h2.07v6.63c0,.48.1.89.3,1.23s.47.61.82.8.74.28,1.17.28.82-.09,1.16-.28.6-.45.8-.8.3-.75.3-1.22v-6.64h2.09v6.58c0,.82-.19,1.56-.56,2.2-.38.65-.89,1.15-1.53,1.52-.65.37-1.39.56-2.25.56Z"/>
      <path class="cls-7" d="M479.76,130.25v-10.71h1.45l.62,2.07v8.64h-2.07ZM487.16,130.25l-6.35-8.23.4-2.48,6.35,8.23-.4,2.48ZM487.16,130.25l-.59-2.01v-8.7h2.09v10.71h-1.49Z"/>
      <path class="cls-7" d="M496.17,121.39v-1.84h8.91v1.84h-8.91ZM499.58,130.25v-10.48h2.09v10.48h-2.09Z"/>
      <path class="cls-7" d="M510.43,130.25l4.31-10.71h1.69l4.3,10.71h-2.21l-3.32-8.79h.76l-3.37,8.79h-2.16ZM512.71,128.26v-1.74h5.76v1.74h-5.76Z"/>
      <path class="cls-7" d="M528.09,130.25v-10.71h1.45l.62,2.07v8.64h-2.07ZM535.49,130.25l-6.35-8.23.4-2.48,6.35,8.23-.4,2.48ZM535.49,130.25l-.59-2.01v-8.7h2.09v10.71h-1.49Z"/>
      <path class="cls-7" d="M544.49,121.39v-1.84h8.91v1.84h-8.91ZM547.91,130.25v-10.48h2.09v10.48h-2.09Z"/>
      <path class="cls-7" d="M563.46,130.41c-.86,0-1.6-.15-2.22-.44s-1.17-.74-1.67-1.32l1.37-1.37c.32.42.68.74,1.1.97s.92.34,1.52.34c.54,0,.97-.11,1.29-.32s.48-.51.48-.88c0-.33-.09-.59-.27-.79-.18-.2-.42-.38-.72-.52s-.63-.27-.99-.39-.72-.25-1.08-.4c-.36-.15-.69-.34-.99-.57s-.54-.52-.72-.88c-.18-.36-.27-.82-.27-1.36,0-.65.16-1.2.47-1.66s.75-.81,1.3-1.05c.55-.24,1.17-.36,1.86-.36.73,0,1.39.14,1.98.41.59.27,1.07.63,1.45,1.07l-1.37,1.37c-.32-.34-.64-.6-.97-.76-.33-.16-.7-.24-1.12-.24-.48,0-.85.09-1.13.27-.27.18-.41.45-.41.79,0,.29.09.53.27.72s.42.34.72.47.63.26.99.38.72.26,1.08.41c.36.15.69.35.99.59s.54.56.72.94.27.85.27,1.41c0,1-.35,1.78-1.05,2.35-.7.57-1.66.85-2.88.85Z"/>
    </g>
  </g>
  <path class="cls-3" d="M219.42,0c1.53,48.68,1.54,97.39,0,146.07-1.54-48.68-1.53-97.39,0-146.07h0Z"/>
  <g>
    <path class="cls-9" d="M52.1,23.71c-3.34.72-6.67,1.49-9.91,2.63-6.76,2.39-12.85,5.89-17.94,10.97-6.13,6.13-9.99,13.5-11.42,22.04-2.19,13.15.71,25.21,8.56,35.96,7.12,9.74,16.78,15.47,28.71,17.37,3,.48,6.02.69,9.04.5,2.18-.14,4-1.28,5.66-2.66,2.17-1.8,3.46-4.21,4.71-6.66,7.56-14.8,15.13-29.59,22.7-44.39,7.41-14.49,14.82-28.98,22.26-43.45,1.11-2.16,2.87-3.75,5.09-4.77,1.42-.65,2.93-.72,4.37-.16,2.51.97,4.57,2.53,5.79,5.01,7.31,14.92,14.6,29.85,21.9,44.77.05.11.09.23.14.35-.09.05-.18.11-.27.16-.09,0-.19-.03-.28,0-3.1.8-6.19,1.63-9.3,2.39-1.41.35-2.79.88-4.27.94-4.74-9.76-9.48-19.52-14.22-29.27-.45-.93-.94-1.83-1.72-2.53-.89-.8-1.69-.78-2.56.03-.63.58-1.04,1.32-1.42,2.07-1.75,3.47-3.5,6.94-5.25,10.41-4.48,8.89-8.96,17.77-13.45,26.66-2.19.4-4.42.51-6.62.77-1.1.13-1.12.17-.48,1.12.05.07.12.13.19.2-.01.06,0,.1.07.12.07.37.21.71.53.94h0c-.02.17.02.3.19.36h.01c.02.27.13.47.32.63,0,.06.02.11.08.13.05.07.09.14.14.21-.01.07,0,.12.06.16-.04.27.11.43.33.55h0c.04.1.09.19.13.28-.01.06,0,.09.06.11.05.07.1.15.16.22-.01.06,0,.1.05.14,0,.4.25.68.51.94v.02c.1.31.19.62.27.93-6.11,12.11-12.42,24.13-18.26,36.36-2.47,5.17-6.48,7.71-11.54,9.3-4.17,1.31-8.33,1-12.56.22-7.75-1.43-15.25-3.59-22.3-7.15-10.34-5.22-18.6-12.66-24.13-22.94-1.21-2.24-2.31-4.54-3.04-7-.09-.6.07-1.28-.57-1.68h0c-.33-1.98-.83-3.91-1.5-5.81,0,0,0,0,0,0,.21-1.2-.26-2.34-.4-3.5-.22-1.76-.22-3.53-.41-5.28-.28-2.65.02-5.27.18-7.9.12-1.94.41-3.87.63-5.81,0,0,0,0,0,0,.6-.53.31-1.23.38-1.87.61-3.35,1.7-6.55,2.95-9.69,3.11-7.76,7.57-14.64,13.56-20.49,8.07-7.89,17.65-12.82,28.83-14.61,5.48-.88,10.99-.7,16.5-.6.16,0,.31,0,.47,0,7.48.02,14.97.05,22.45.07,2.67,0,4.21,1.03,5.05,3.55.65,1.93.75,3.9-.13,5.82-.15.08-.18.23-.18.38,0,0,0,0,0,0-.67.09-.71.6-.76,1.12h0c-.24,0-.37.12-.38.36,0,0-.01,0-.01,0-.15.01-.29.06-.34.22,0,0,.01,0,.01,0-1.19.43-2.42.35-3.65.36-4.44.01-8.88-.22-13.32-.34-5.66-.15-11.32-.08-16.98,0-1.17.01-2.4.15-3.51.7Z"/>
    <path class="cls-9" d="M159.54,77.07c7.66,15.67,15.33,31.34,22.98,47.01.64,1.3.75,1.01-.57,1.66-4.82,2.36-9.64,1.88-14.45-.11-.3-.12-.44-.33-.56-.58-6.84-14.1-13.67-28.19-20.51-42.29.18-.12.34-.28.54-.36,2.87-1.24,5.74-2.49,8.63-3.69,1.31-.55,2.56-1.25,3.94-1.64Z"/>
    <path class="cls-4" d="M93.52,76.71c-.05-.04-.07-.09-.06-.16-.05-.07-.09-.14-.14-.21-.06-.02-.09-.06-.08-.13.06-.29.11-.58-.32-.62,0,0-.01-.01-.01-.01.02-.16-.01-.3-.19-.36,0,0,0,0,0,0,.01-.42,0-.82-.53-.94-.06-.02-.08-.06-.06-.12.18-.36-.17-.63-.16-1.05.7,0,1.39.1,2.05-.02,2.77-.48,5.57-.67,8.34-1.1.55-.09,1.18.06,1.64-.42.12-.02.23-.04.35-.06.74.21,1.43.08,2.08-.3.12-.02.24-.04.36-.06.14.04.29.13.43.12,1.09-.14,2.21-.18,3.27-.48.95-.27,2.03-.04,2.88-.71.12-.02.23-.05.35-.07.57.28,1.05.02,1.52-.25.18-.04.36-.08.54-.12.82.39,1.55-.15,2.31-.27,1.06-.17,2.18-.18,3.15-.77.12-.03.23-.06.35-.08.22.2.46.13.7.07,3.72-.87,7.49-1.57,11.2-2.51,2.67-.68,5.37-1.25,8.06-1.86,2.66-.61,5.27-1.39,7.92-2.03.66-.16,1.62.08,2.06-.79.09-.05.18-.11.27-.16.11,0,.21.01.32.02.17.14.34.08.53.03,3.86-1.04,7.72-2.07,11.57-3.14.73-.2,1.56-.17,2.16-.75.12-.04.23-.08.35-.11.93.19,1.68-.27,2.46-.66.12-.04.24-.07.36-.11.11.04.24.14.33.12,2.47-.68,4.94-1.37,7.4-2.05,2.14-.6,4.28-1.19,6.43-1.79.37-.1.35.09.25.34-.02.04-.05.05-.09.04-1.5.37-2.76,1.27-4.15,1.9-.52.23-1.22.27-1.53.9l-.03-.04s.03.03.03.03c-.35-.06-.64-.03-.76.37,0,0,0,0,0,0-.18-.04-.32,0-.38.18,0,0,0,0,0,0-.76.04-1.38.36-1.9.9,0,0,0,0,0,0-.36.01-.76-.06-.91.41,0,0,0,0,0,0-.49-.04-.88.11-1.15.54,0,0,0,0,0,0-1.12.17-2.08.68-2.98,1.35,0,0,0,0,0,0-.17-.04-.31,0-.4.17,0,0,0,0,0,0-1,.1-1.84.56-2.63,1.14l-.04.03s-.05,0-.05,0c-1.38.34-2.69.85-3.87,1.65-.12.05-.24.09-.35.14-.79-.02-1.43.36-2.04.8,0,0,0,0,0,0-.72.03-1.4.16-1.89.76-.02.04-.05.05-.09.04-.88.05-1.66.36-2.35.9-.02.04-.04.05-.08.04-.88.03-1.64.4-2.36.87l-.05.03s-.06,0-.06,0c-.74,0-1.38.29-1.95.73-.02.03-.05.05-.09.03-1.14.07-2.14.5-3.09,1.1l-.04.04s-.05,0-.05,0c-1.9.43-3.78.92-5.51,1.84,0,0,0,0,0,0-.39-.08-.7.06-.97.33-.09.02-.18.05-.27.07-.18.02-.37,0-.54.06-3.68,1.09-7.36,2.17-11.02,3.3-1.05.33-2.2.4-3.14,1.07h0c-2.08.2-3.99,1.03-6,1.54-.51.13-1.13.08-1.51.58-.12.03-.24.07-.36.1-.15-.17-.32-.14-.51-.09-1.85.52-3.69,1.03-5.54,1.55-1.64.46-3.28.91-4.91,1.38-.31.09-.78.18-.55.65.23.48.3,1.1.88,1.37,0,0,0,0,0,0,.05.08.1.15.14.23h0c.24,1.17.9,2.15,1.46,3.16.31.57.33,1.34,1.02,1.68,0,0,0,0,0,0,.02.18-.02.39.06.54.85,1.67,1.72,3.34,2.59,4.99.06.12.23.19.34.28,0,0,0,0,0,0,.02.72.46,1.22.9,1.72,0,0,0,0,0,0,.06.36.12.73.18,1.09-.03.04-.07.06-.12.05-.74-.13-1.22.33-1.71.76,0,0,0,0,0,0-.18-.05-.32,0-.4.17-.02.04-.05.05-.1.04-.31-.09-.52.04-.66.31-.03.04-.07.05-.12.04-.64-.03-1.15.23-1.56.71h0c-.38-.02-.75-.02-.93.41-.02.04-.05.05-.09.04-.47.03-.95.02-1.19.54,0,0,0,0,0,0-.18-.04-.32,0-.4.18-.02.04-.05.05-.09.04-.26-.09-.5.02-.69.16-.85.63-1.25.11-1.56-.6-.16-.37-.25-.76-.69-.91,0,0,0,0,0,0,0-.32-.08-.6-.41-.73l.05-.02s-.05.03-.05.03c-.33-1.23-.96-2.29-1.8-3.24,0,0,0,0,0,0-.02-.3-.14-.55-.4-.72,0,0,0,0,0,0-.08-.86-.57-1.48-1.14-2.07-.04-.02-.05-.04-.04-.08-.19-1.06-.82-1.88-1.49-2.68l.06-.03s-.06.03-.06.03c.02-.44-.11-.78-.55-.95-.06-.54-.23-1.03-.73-1.33,0,0,0,0,0,0,.03-.18,0-.32-.2-.38,0,0,0,0,0,0-.05-.08-.1-.15-.14-.23,0,0,0,0,0,0-.09-.58-.23-1.14-.8-1.45l.05-.03s-.05.02-.05.02c.04-.76-.49-1.2-.92-1.7,0,0,0,0,0,0,.03-.18,0-.32-.21-.36,0,0,0,0,0,0-.07-.54-.23-1.04-.74-1.33,0,0,0,0,0,0-.13-.5-.07-1.11-.73-1.32,0,0-.01-.02-.01-.02.04-.42.06-.84-.51-.94-.05-.04-.06-.08-.05-.14-.05-.07-.1-.15-.16-.22-.05-.02-.08-.05-.06-.11.03-.13-.01-.22-.13-.27,0,0,0,0,0,0,.02-.26.02-.51-.33-.55Z"/>
    <path class="cls-6" d="M159.54,77.07c-1.38.39-2.62,1.09-3.94,1.64-2.89,1.2-5.76,2.45-8.63,3.69-.19.08-.36.24-.54.36-1.28.26-2.45.77-3.56,1.45-.77.16-1.52.38-2.13.92-.44-.17-.78.14-1.14.28-2.44.95-4.85,1.97-7.3,2.88-.72.27-.74.52-.39,1.13,2.37,4.21,4.7,8.44,7.09,12.64.44.77.38,1.13-.42,1.56-2.33,1.26-4.63,2.59-6.91,3.94-.62.37-.87.25-1.21-.35-4.38-7.66-8.78-15.3-13.21-22.93-.44-.75.02-.8.52-.96,8.23-2.58,16.46-5.15,24.69-7.75,15.56-4.92,31.08-9.98,46.41-15.56,2.72-.99,5.44-2,8.16-2.98.54-.19,1.12-.27,1.62-.57.22.05.43.11.42.4-12.55,7.52-25.72,13.8-39.02,19.85-.2.09-.42.13-.51.37Z"/>
    <path class="cls-9" d="M140.75,85.13c.61-.53,1.36-.75,2.13-.92,5.72,11.64,11.45,23.29,17.17,34.93,1.28,2.6,2.55,5.19,3.82,7.79.32.66.79,1.18,1.43,1.56.21.13.68-.04.62.4-.09.64-.23,1.28-.43,1.9-.06.17-.4.02-.59-.05-1.41-.52-2.47-1.48-3.12-2.8-6.42-13.03-12.82-26.07-19.23-39.11-.6-1.23-1.19-2.46-1.79-3.7Z"/>
    <path class="cls-2" d="M52.1,23.71c1.11-.55,2.33-.69,3.51-.7,5.66-.07,11.33-.14,16.98,0,4.44.12,8.88.35,13.32.34,1.23,0,2.46.07,3.65-.36-.98.83-2.17.63-3.3.62-2.31-.01-4.61-.07-6.92-.11-7.23-.15-14.46-.3-21.69-.44-1.6-.03-3.16.33-4.73.55-.28.04-.55.06-.83.09Z"/>
    <path class="cls-2" d="M1.16,58.73c-.22,1.93-.51,3.86-.63,5.81-.16,2.63-.46,5.24-.18,7.9.18,1.75.19,3.52.41,5.28.15,1.16.61,2.3.4,3.5-.53-1.86-.71-3.78-.9-5.69-.53-5.48-.23-10.94.73-16.36.03-.15.11-.29.17-.43Z"/>
    <path class="cls-8" d="M183.91,53.13c.1-.25.12-.44-.25-.34-2.14.6-4.28,1.19-6.43,1.79-2.47.69-4.93,1.38-7.4,2.05-.09.03-.22-.08-.33-.12,2.63-.75,5.25-1.51,7.88-2.24,2.15-.6,4.32-1.17,6.47-1.77.42-.12.83-.22,1.37-.06-.42.37-.82.6-1.31.68Z"/>
    <path class="cls-8" d="M127.18,74.84c.94-.67,2.08-.74,3.14-1.07,3.67-1.13,7.35-2.21,11.02-3.3.17-.05.36-.04.54-.06-2.03.87-4.18,1.4-6.28,2.05-2.58.8-5.19,1.54-7.79,2.3-.2.06-.43.06-.64.09Z"/>
    <path class="cls-8" d="M166.33,57.4c-.6.58-1.43.55-2.16.75-3.85,1.07-7.71,2.09-11.57,3.14-.19.05-.36.11-.53-.03,2.52-.86,5.13-1.43,7.7-2.13,2.18-.6,4.33-1.29,6.56-1.72Z"/>
    <path class="cls-8" d="M108.68,81.93c-.57-.27-.65-.88-.88-1.37-.23-.48.24-.56.55-.65,1.63-.47,3.27-.93,4.91-1.38,1.85-.52,3.69-1.03,5.54-1.55.19-.05.36-.08.51.09-2.61.74-5.21,1.48-7.82,2.22-.93.26-1.85.56-2.79.77-.66.14-.76.39-.42.94.18.29.27.62.4.94Z"/>
    <path class="cls-8" d="M119.67,76.96c.38-.5,1.01-.46,1.51-.58,2-.5,3.92-1.34,6-1.54-2.06.79-4.23,1.23-6.34,1.86-.38.11-.75.32-1.17.26Z"/>
    <path class="cls-8" d="M114.29,92.79c-.12-.09-.28-.16-.34-.28-.87-1.66-1.74-3.32-2.59-4.99-.08-.15-.04-.36-.06-.54,1.11,1.88,2.15,3.8,2.99,5.82Z"/>
    <path class="cls-8" d="M178.14,55.97c.31-.63,1.01-.67,1.53-.9,1.39-.62,2.65-1.53,4.15-1.9-1.82,1.08-3.72,2.01-5.68,2.8Z"/>
    <path class="cls-8" d="M143.11,70c1.74-.92,3.62-1.4,5.51-1.84-1.79.74-3.62,1.38-5.51,1.84Z"/>
    <path class="cls-8" d="M111.3,86.99c-.69-.35-.7-1.11-1.02-1.68-.56-1.01-1.22-1.99-1.46-3.15.91,1.57,1.79,3.15,2.48,4.83Z"/>
    <path class="cls-2" d="M1.16,81.21c.66,1.89,1.17,3.83,1.5,5.81-.7-1.88-1.21-3.82-1.5-5.81Z"/>
    <path class="cls-1" d="M199.08,56.85c0-.29-.2-.35-.42-.4.73-.45,1.55-.65,2.38-.86-.52.63-1.16,1.08-1.96,1.26Z"/>
    <path class="cls-8" d="M105.06,97.51c.44.15.53.54.69.91.31.72.71,1.23,1.56.6.19-.14.43-.24.69-.16-.02.02-.03.06-.06.07-1.7,1.04-2.04.87-2.88-1.43Z"/>
    <path class="cls-8" d="M163.1,62.69c1.18-.8,2.49-1.31,3.87-1.65-1.22.72-2.53,1.21-3.87,1.65Z"/>
    <path class="cls-8" d="M102.85,93.55c.84.94,1.47,2.01,1.8,3.24-.73-1.01-1.3-2.1-1.8-3.24Z"/>
    <path class="cls-8" d="M148.72,68.13c.95-.6,1.95-1.03,3.09-1.1-.98.5-2.01.85-3.09,1.1Z"/>
    <path class="cls-8" d="M170.08,59.71c.89-.67,1.86-1.17,2.98-1.35-.94.57-1.93,1.02-2.98,1.35Z"/>
    <path class="cls-8" d="M99.78,87.99c.67.8,1.29,1.62,1.49,2.68-.63-.82-1.1-1.73-1.49-2.68Z"/>
    <path class="cls-8" d="M167.06,61.01c.79-.58,1.63-1.04,2.63-1.14-.82.51-1.69.9-2.63,1.14Z"/>
    <path class="cls-8" d="M169.14,56.63c-.78.38-1.53.84-2.46.66.79-.32,1.61-.56,2.46-.66Z"/>
    <path class="cls-8" d="M101.31,90.75c.57.59,1.06,1.21,1.14,2.07-.49-.63-.89-1.31-1.14-2.07Z"/>
    <path class="cls-8" d="M156.4,65.33c.69-.54,1.47-.84,2.35-.9-.73.43-1.51.73-2.35.9Z"/>
    <path class="cls-8" d="M153.95,66.24c.72-.47,1.47-.85,2.36-.87-.74.41-1.51.73-2.36.87Z"/>
    <path class="cls-8" d="M175.11,57.42c.52-.54,1.14-.86,1.9-.9-.58.42-1.21.72-1.9.9Z"/>
    <path class="cls-8" d="M160.71,63.64c.61-.45,1.24-.83,2.04-.8-.64.38-1.3.68-2.04.8Z"/>
    <path class="cls-8" d="M158.83,64.39c.49-.6,1.17-.72,1.89-.76-.57.39-1.21.64-1.89.76Z"/>
    <path class="cls-8" d="M113.53,96.41c.49-.42.97-.89,1.71-.76-.52.36-1.09.63-1.71.76Z"/>
    <path class="cls-8" d="M96.44,81.97c.43.5.96.95.92,1.7-.41-.51-.74-1.07-.92-1.7Z"/>
    <path class="cls-8" d="M115.18,94.5c-.44-.5-.89-.99-.9-1.72.44.5.71,1.09.9,1.72Z"/>
    <path class="cls-8" d="M151.9,67c.58-.44,1.21-.73,1.95-.73-.6.38-1.25.62-1.95.73Z"/>
    <path class="cls-8" d="M110.7,97.67c.41-.47.92-.74,1.56-.71-.46.37-.99.59-1.56.71Z"/>
    <path class="cls-2" d="M1.54,56.86c-.07.64.22,1.34-.38,1.87,0-.65.14-1.27.38-1.87Z"/>
    <path class="cls-8" d="M94.78,78.97c.66.21.6.82.73,1.32-.16-.13-.31-.26-.46-.39-.09-.31-.18-.62-.26-.93Z"/>
    <path class="cls-2" d="M90.29,22.41c.05-.51.09-1.03.76-1.12-.14.45-.38.83-.76,1.12Z"/>
    <path class="cls-8" d="M95.5,80.29c.51.3.67.79.74,1.33-.39-.36-.58-.84-.74-1.33Z"/>
    <path class="cls-2" d="M2.65,87.01c.64.41.48,1.09.57,1.68-.3-.52-.48-1.09-.57-1.68Z"/>
    <path class="cls-8" d="M97.36,83.67c.58.31.72.86.8,1.45-.38-.42-.63-.91-.8-1.45Z"/>
    <path class="cls-8" d="M98.5,85.71c.5.3.67.79.74,1.33-.35-.38-.59-.83-.74-1.33Z"/>
    <path class="cls-8" d="M115.37,95.6c-.06-.36-.12-.73-.18-1.09.2.34.79.61.18,1.09Z"/>
    <path class="cls-8" d="M108.48,98.66c.24-.53.73-.51,1.19-.54-.34.31-.75.46-1.19.54Z"/>
    <path class="cls-8" d="M173.05,58.36c.27-.43.66-.58,1.15-.54-.33.29-.71.48-1.15.54Z"/>
    <path class="cls-8" d="M99.24,87.04c.44.17.57.52.55.95-.32-.24-.45-.58-.55-.95Z"/>
    <path class="cls-8" d="M109.77,98.08c.18-.43.55-.42.93-.41-.27.23-.56.4-.93.41Z"/>
    <path class="cls-8" d="M142.16,70.33c.26-.28.58-.41.97-.33-.27.26-.6.34-.97.33Z"/>
    <path class="cls-8" d="M174.2,57.83c.15-.48.55-.4.91-.41-.25.25-.56.38-.91.41Z"/>
    <path class="cls-8" d="M177.39,56.34c.11-.4.41-.44.76-.37-.2.23-.45.35-.76.37Z"/>
    <path class="cls-8" d="M102.45,92.82c.26.17.38.42.4.72-.25-.18-.38-.42-.4-.72Z"/>
    <path class="cls-8" d="M112.38,96.92c.14-.27.35-.4.66-.31-.17.21-.38.33-.66.31Z"/>
    <path class="cls-8" d="M104.65,96.78c.33.14.41.41.41.73-.25-.18-.36-.44-.41-.73Z"/>
    <path class="cls-5" d="M46.48,135.33c-.42.1-.33-.21-.35-.43.12.14.24.29.35.43Z"/>
    <path class="cls-2" d="M89.91,22.77c.02-.24.15-.36.38-.35-.08.17-.19.31-.38.35Z"/>
    <path class="cls-2" d="M89.56,23c.05-.17.19-.21.34-.22-.11.07-.23.15-.34.22Z"/>
    <path class="cls-8" d="M177,56.52c.07-.18.21-.22.38-.18-.08.16-.22.19-.38.18Z"/>
    <path class="cls-8" d="M98.31,85.34c.19.06.23.2.2.38-.16-.08-.2-.22-.2-.38Z"/>
    <path class="cls-8" d="M113.14,96.58c.08-.18.22-.22.4-.17-.09.15-.24.19-.4.17Z"/>
    <path class="cls-8" d="M108.08,98.83c.08-.18.23-.22.4-.18-.09.17-.24.19-.4.18Z"/>
    <path class="cls-8" d="M96.24,81.61c.21.04.24.18.21.36-.16-.07-.21-.2-.21-.36Z"/>
    <path class="cls-2" d="M91.05,21.3c0-.16.02-.3.18-.38,0,.16-.04.29-.18.38Z"/>
    <path class="cls-8" d="M169.69,59.87c.08-.17.22-.21.4-.17-.09.15-.23.19-.4.17Z"/>
    <path class="cls-8" d="M98.17,85.13c.05.08.1.15.14.23-.11-.04-.16-.11-.14-.23Z"/>
    <path class="cls-8" d="M108.81,82.15c-.05-.08-.1-.15-.14-.23.11.03.16.11.14.23Z"/>
    <path class="cls-8" d="M133.76,65.68c1.33-.2,2.66-.42,3.9-.96,1.48-.06,2.85-.59,4.27-.94,3.11-.76,6.2-1.6,9.3-2.39.09-.02.18,0,.28,0-.44.87-1.41.63-2.06.79-2.65.64-5.26,1.42-7.92,2.03-2.69.61-5.39,1.19-8.06,1.86-3.71.94-7.48,1.63-11.2,2.51-.25.06-.49.13-.7-.07,2.92-.65,5.85-1.29,8.77-1.95.38-.08.82-.03,1.09-.4.85.17,1.57-.26,2.33-.48Z"/>
    <path class="cls-8" d="M99.03,72.08c1.31-.14,2.63-.29,3.94-.43.33-.04.67-.05,1.01-.07-.45.48-1.09.34-1.64.42-2.77.43-5.58.62-8.34,1.1-.66.12-1.36.02-2.05.02,0,.42.34.7.16,1.05-.06-.07-.14-.13-.19-.2-.64-.95-.62-.99.48-1.12,2.21-.25,4.43-.37,6.62-.77Z"/>
    <path class="cls-8" d="M92.18,74.28c.52.12.54.52.53.94-.33-.23-.46-.57-.53-.94Z"/>
    <path class="cls-8" d="M94.26,78.01c.56.1.54.52.51.94-.26-.27-.5-.54-.51-.94Z"/>
    <path class="cls-8" d="M92.91,75.6c.43.04.38.32.32.62-.19-.16-.31-.36-.32-.62Z"/>
    <path class="cls-8" d="M93.52,76.71c.35.04.35.29.33.55-.22-.12-.37-.28-.33-.55Z"/>
    <path class="cls-8" d="M92.71,75.22c.18.06.21.19.19.36-.17-.06-.21-.2-.19-.36Z"/>
    <path class="cls-8" d="M93.32,76.34c.05.07.09.14.14.21-.05-.07-.09-.14-.14-.21Z"/>
    <path class="cls-8" d="M94.05,77.65c.05.07.1.15.16.22-.05-.07-.1-.15-.16-.22Z"/>
    <path class="cls-8" d="M93.86,77.27c.12.05.16.15.13.27-.04-.09-.09-.18-.13-.27Z"/>
    <path class="cls-8" d="M106.77,71.14c2.19-.36,4.38-.71,6.57-1.07-.85.67-1.92.44-2.88.71-1.05.29-2.17.34-3.27.48-.14.02-.29-.08-.43-.12Z"/>
    <path class="cls-8" d="M115.75,69.64c1.8-.42,3.62-.8,5.45-1.04-.96.59-2.08.61-3.15.77-.76.12-1.49.66-2.31.27Z"/>
    <path class="cls-8" d="M104.33,71.51c.68-.17,1.37-.31,2.08-.3-.65.38-1.34.51-2.08.3Z"/>
    <path class="cls-8" d="M113.69,70.01c.49-.17.99-.3,1.52-.25-.48.27-.95.53-1.52.25Z"/>
    <path class="cls-9" d="M133.76,65.68c-.76.23-1.49.66-2.33.48-4.55-9.27-9.1-18.54-13.66-27.8-.19-.39-.23-.66.1-.97.43-.4.82-.84,1.32-1.37,4.89,9.94,9.73,19.8,14.58,29.66Z"/>
  </g>
</svg>