<?xml version="1.0" encoding="UTF-8"?>
<svg id="Layer_1" xmlns="http://www.w3.org/2000/svg" version="1.1" viewBox="0 0 1080 1080">
  <!-- Generator: Adobe Illustrator 29.3.0, SVG Export Plug-In . SVG Version: 2.1.0 Build 146)  -->
  <defs>
    <style>
      .st0 {
        fill: #ff9100;
      }

      .st1 {
        fill: #666;
      }
    </style>
  </defs>
  <g>
    <path class="st1" d="M340.25,596.71c2.99-2.51,4.49-5.9,4.49-10.18,0-2.97-.9-5.61-2.7-7.92-1.8-2.31-4.19-3.78-7.15-4.42,2.63-.78,4.73-2.16,6.31-4.16,1.58-1.99,2.37-4.5,2.37-7.52,0-4.09-1.47-7.32-4.42-9.71-2.94-2.38-7.02-3.58-12.22-3.58h-23.06v51.23h23.87c5.35,0,9.52-1.25,12.52-3.76ZM316.35,559.23h8.17c2.04,0,3.61.46,4.71,1.39,1.09.92,1.64,2.26,1.64,4.01s-.55,3.08-1.64,3.98c-1.09.9-2.66,1.35-4.71,1.35h-8.17v-10.73ZM316.35,590.39v-11.31h9.05c2.09,0,3.73.51,4.93,1.53,1.19,1.02,1.79,2.43,1.79,4.23s-.57,3.17-1.71,4.12c-1.14.95-2.76,1.42-4.85,1.42h-9.2Z"/>
    <path class="st1" d="M364.45,581.12h2.99l10.66,19.34h14.09l-11.82-20.29c3.75-1.12,6.58-3.02,8.5-5.69,1.92-2.68,2.88-5.72,2.88-9.12,0-3.02-.71-5.75-2.12-8.21-1.41-2.46-3.54-4.39-6.39-5.8-2.85-1.41-6.29-2.12-10.33-2.12h-20.95v51.23h12.48v-19.34ZM364.45,559.59h7.74c2.29,0,4,.56,5.15,1.68,1.14,1.12,1.72,2.65,1.72,4.6,0,2.04-.57,3.62-1.72,4.74-1.14,1.12-2.86,1.68-5.15,1.68h-7.74v-12.7Z"/>
    <path class="st1" d="M412.32,591.42h19.12l3.07,9.05h13.21l-18.54-51.23h-14.45l-18.54,51.23h13.06l3.07-9.05ZM421.88,563.02l6.35,18.76h-12.63l6.28-18.76Z"/>
    <polygon class="st1" points="465.82 568.86 486.69 600.47 499.17 600.47 499.17 549.23 486.69 549.23 486.69 580.98 465.82 549.23 453.34 549.23 453.34 600.47 465.82 600.47 465.82 568.86"/>
    <path class="st1" d="M541.54,597.25c4.06-2.14,7.2-5.16,9.42-9.05,2.21-3.89,3.32-8.34,3.32-13.36s-1.11-9.52-3.32-13.39c-2.21-3.87-5.34-6.87-9.38-9.01-4.04-2.14-8.76-3.21-14.16-3.21h-19.19v51.23h19.19c5.35,0,10.06-1.07,14.12-3.21ZM520.7,589.66v-29.78h5.91c4.72,0,8.39,1.31,11.02,3.94,2.63,2.63,3.94,6.3,3.94,11.02s-1.31,8.37-3.94,10.95c-2.63,2.58-6.3,3.87-11.02,3.87h-5.91Z"/>
    <path class="st0" d="M571.75,597.51c3.96,2.21,8.48,3.32,13.54,3.32,4.28,0,8.12-.83,11.53-2.48,3.41-1.65,6.21-3.82,8.43-6.5,2.21-2.68,3.78-5.57,4.71-8.69v-11.6h-27.15v9.2h15.84c-.97,2.92-2.52,5.16-4.63,6.71-2.12,1.56-4.71,2.34-7.77,2.34-4.48,0-7.99-1.33-10.55-3.98-2.55-2.65-3.83-6.34-3.83-11.06,0-4.43,1.22-7.97,3.65-10.62,2.43-2.65,5.67-3.98,9.71-3.98,2.33,0,4.37.45,6.09,1.35,1.73.9,3.05,2.2,3.98,3.9h13.79c-1.36-5.25-4.15-9.37-8.36-12.33-4.21-2.97-9.38-4.45-15.51-4.45-5.06,0-9.56,1.11-13.5,3.32-3.94,2.21-7.02,5.3-9.23,9.27-2.21,3.97-3.32,8.48-3.32,13.54s1.11,9.56,3.32,13.5c2.21,3.94,5.3,7.02,9.27,9.23Z"/>
    <polygon class="st0" points="661.27 600.47 661.27 549.23 648.79 549.23 648.79 569.3 629.37 569.3 629.37 549.23 616.89 549.23 616.89 600.47 629.37 600.47 629.37 579.37 648.79 579.37 648.79 600.47 661.27 600.47"/>
    <path class="st0" d="M666.89,600.47h13.06l3.07-9.05h19.12l3.07,9.05h13.21l-18.54-51.23h-14.45l-18.54,51.23ZM692.58,563.02l6.35,18.76h-12.63l6.28-18.76Z"/>
    <path class="st0" d="M594.4,545.82l69.46-69.46,68.87,68.87h12.25c2.1,0,4.08.18,5.93.53l-78.22-78.22-8.82-8.82-8.82,8.82-78.1,78.1c2.61-.66,5.38-.99,8.28-.99,3.28,0,6.34.4,9.18,1.18Z"/>
    <path class="st0" d="M768.95,608.76l-16.53-28.58c3.75-1.12,6.58-3.02,8.5-5.69,1.92-2.68,2.88-5.72,2.88-9.12,0-3.02-.71-5.75-2.12-8.21-1.41-2.46-3.54-4.39-6.39-5.8-2.85-1.41-6.29-2.12-10.33-2.12h-20.95v51.23h12.48v-19.34h2.99l15.7,27.64h-256.03v12.48h276.96l-7.18-12.48ZM749.39,570.61c-1.14,1.12-2.86,1.68-5.15,1.68h-7.74v-12.7h7.74c2.29,0,4,.56,5.15,1.68,1.14,1.12,1.71,2.65,1.71,4.6,0,2.04-.57,3.62-1.71,4.74Z"/>
  </g>
  <g>
    <path class="st0" d="M312.01,618.83h-4.81l-.8,2.3h-2.54l4.34-12.08h2.82l4.34,12.08h-2.56l-.79-2.3ZM311.35,616.9l-1.75-5.05-1.75,5.05h3.49Z"/>
    <path class="st0" d="M336.33,609.07v12.07h-2.42v-7.85l-3.23,7.85h-1.83l-3.25-7.85v7.85h-2.42v-12.07h2.75l3.84,8.97,3.84-8.97h2.73Z"/>
    <path class="st0" d="M348.79,611.55v9.58h-2.44v-1.21c-.31.42-.72.74-1.22.98-.5.24-1.05.35-1.63.35-.75,0-1.41-.16-1.99-.47-.58-.32-1.03-.78-1.36-1.4-.33-.62-.49-1.35-.49-2.2v-5.62h2.42v5.27c0,.76.19,1.35.57,1.76s.9.61,1.56.61,1.19-.2,1.57-.61.57-.99.57-1.76v-5.27h2.44Z"/>
    <path class="st0" d="M354.64,608.34v12.79h-2.42v-12.79h2.42Z"/>
    <path class="st0" d="M360.88,613.54v4.63c0,.32.08.56.23.7.16.14.42.22.79.22h1.12v2.04h-1.52c-2.04,0-3.06-.99-3.06-2.97v-4.62h-1.14v-1.99h1.14v-2.37h2.44v2.37h2.14v1.99h-2.14Z"/>
    <path class="st0" d="M365.97,610.01c-.28-.27-.42-.61-.42-1.01s.14-.74.42-1.01c.28-.27.64-.41,1.06-.41s.78.14,1.06.41c.28.27.42.61.42,1.01s-.14.74-.42,1.01c-.28.27-.64.41-1.06.41s-.78-.13-1.06-.41ZM368.22,611.55v9.58h-2.42v-9.58h2.42Z"/>
    <path class="st0" d="M385.32,615.96c.44.55.66,1.19.66,1.9,0,.65-.16,1.21-.47,1.7-.32.49-.78.87-1.37,1.15-.6.28-1.31.42-2.13.42h-5.2v-12.07h4.98c.82,0,1.52.13,2.12.4.59.26,1.04.63,1.35,1.11.31.47.46,1.01.46,1.61,0,.7-.19,1.29-.56,1.76-.38.47-.87.81-1.5,1,.68.13,1.24.47,1.68,1.02ZM379.22,614.04h2.21c.58,0,1.02-.13,1.33-.39.31-.26.47-.63.47-1.12s-.16-.86-.47-1.12c-.31-.26-.76-.4-1.33-.4h-2.21v3.03ZM383.03,618.75c.33-.28.49-.67.49-1.18s-.17-.92-.52-1.22c-.35-.29-.81-.44-1.4-.44h-2.39v3.25h2.44c.59,0,1.05-.14,1.37-.42Z"/>
    <path class="st0" d="M392.59,611.85c.5-.29,1.07-.43,1.72-.43v2.54h-.64c-.76,0-1.33.18-1.72.54s-.58.98-.58,1.87v4.77h-2.42v-9.58h2.42v1.49c.31-.51.72-.9,1.22-1.19Z"/>
    <path class="st0" d="M396.93,613.73c.39-.75.91-1.32,1.57-1.73.66-.4,1.4-.6,2.22-.6.71,0,1.34.14,1.88.43.54.29.96.65,1.29,1.09v-1.37h2.44v9.58h-2.44v-1.4c-.31.45-.74.82-1.29,1.11-.55.29-1.18.44-1.89.44-.81,0-1.54-.21-2.2-.62-.66-.42-1.19-1-1.57-1.75-.39-.76-.58-1.62-.58-2.6s.19-1.83.58-2.58ZM403.54,614.83c-.23-.42-.54-.74-.93-.97-.39-.22-.81-.34-1.26-.34s-.87.11-1.25.33c-.38.22-.69.54-.92.96-.24.42-.35.92-.35,1.49s.12,1.08.35,1.51c.24.43.55.76.93.99.39.23.8.35,1.24.35s.87-.11,1.26-.34c.39-.22.7-.55.93-.97s.35-.92.35-1.51-.11-1.09-.35-1.51Z"/>
    <path class="st0" d="M417.8,612.5c.7.72,1.05,1.73,1.05,3.02v5.62h-2.42v-5.29c0-.76-.19-1.35-.57-1.76s-.9-.61-1.56-.61-1.2.2-1.58.61-.58.99-.58,1.76v5.29h-2.42v-9.58h2.42v1.19c.32-.41.73-.74,1.24-.98.5-.24,1.05-.35,1.65-.35,1.14,0,2.06.36,2.77,1.08Z"/>
    <path class="st0" d="M422.15,613.73c.39-.75.91-1.32,1.58-1.73.67-.4,1.41-.6,2.23-.6.62,0,1.22.14,1.78.41.56.27,1.01.63,1.35,1.08v-4.55h2.45v12.79h-2.45v-1.42c-.3.47-.72.85-1.26,1.14-.54.29-1.17.43-1.88.43-.81,0-1.54-.21-2.21-.62s-1.2-1-1.58-1.75c-.39-.76-.58-1.62-.58-2.6s.19-1.83.58-2.58ZM428.76,614.83c-.23-.42-.54-.74-.93-.97-.39-.22-.81-.34-1.26-.34s-.87.11-1.25.33c-.38.22-.69.54-.92.96-.24.42-.35.92-.35,1.49s.12,1.08.35,1.51c.24.43.55.76.93.99.39.23.8.35,1.24.35s.87-.11,1.26-.34c.39-.22.7-.55.93-.97s.35-.92.35-1.51-.11-1.09-.35-1.51Z"/>
    <path class="st0" d="M441.99,620.82c-.67-.29-1.21-.7-1.6-1.24-.39-.54-.59-1.18-.6-1.92h2.59c.03.49.21.89.53,1.18.32.29.75.43,1.31.43s1.01-.14,1.33-.41c.32-.27.48-.63.48-1.06,0-.36-.11-.65-.33-.88-.22-.23-.49-.41-.82-.54s-.78-.28-1.36-.44c-.78-.23-1.42-.46-1.91-.68s-.91-.56-1.26-1.02c-.35-.45-.53-1.06-.53-1.82,0-.71.18-1.34.54-1.87s.86-.94,1.5-1.22c.64-.28,1.38-.42,2.21-.42,1.25,0,2.26.3,3.03.91.78.61,1.21,1.45,1.29,2.53h-2.66c-.02-.42-.2-.76-.53-1.03-.33-.27-.76-.41-1.31-.41-.47,0-.85.12-1.13.36-.28.24-.42.59-.42,1.05,0,.32.11.59.32.8s.48.39.8.52.76.28,1.34.46c.78.23,1.42.46,1.92.69.49.23.92.58,1.28,1.04s.54,1.07.54,1.81c0,.65-.17,1.25-.5,1.8-.34.55-.82.99-1.47,1.32-.65.33-1.41.49-2.3.49-.84,0-1.6-.14-2.27-.43Z"/>
    <path class="st0" d="M454.48,613.54v4.63c0,.32.08.56.23.7.16.14.42.22.79.22h1.12v2.04h-1.52c-2.04,0-3.06-.99-3.06-2.97v-4.62h-1.14v-1.99h1.14v-2.37h2.44v2.37h2.14v1.99h-2.14Z"/>
    <path class="st0" d="M461.17,620.67c-.74-.41-1.32-.99-1.74-1.74-.42-.75-.63-1.61-.63-2.59s.22-1.84.65-2.59c.43-.75,1.02-1.33,1.77-1.74.75-.41,1.58-.61,2.51-.61s1.76.2,2.51.61c.75.41,1.34.99,1.77,1.74.43.75.65,1.61.65,2.59s-.22,1.84-.67,2.59c-.44.75-1.04,1.33-1.8,1.74-.76.41-1.6.61-2.53.61s-1.75-.2-2.49-.61ZM464.89,618.86c.39-.21.69-.53.92-.96.23-.43.35-.94.35-1.56,0-.91-.24-1.61-.72-2.1-.48-.49-1.06-.73-1.76-.73s-1.27.24-1.74.73-.7,1.19-.7,2.1.23,1.61.68,2.1c.45.49,1.03.73,1.72.73.44,0,.85-.11,1.24-.32Z"/>
    <path class="st0" d="M475.11,611.85c.5-.29,1.07-.43,1.72-.43v2.54h-.64c-.76,0-1.33.18-1.72.54s-.58.98-.58,1.87v4.77h-2.42v-9.58h2.42v1.49c.31-.51.72-.9,1.22-1.19Z"/>
    <path class="st0" d="M488.32,617.07h-7c.06.69.3,1.23.73,1.62.43.39.95.59,1.57.59.9,0,1.54-.39,1.92-1.16h2.61c-.28.92-.81,1.68-1.59,2.27-.78.59-1.75.89-2.89.89-.92,0-1.75-.2-2.48-.61-.73-.41-1.3-.99-1.71-1.74s-.61-1.61-.61-2.59.2-1.86.6-2.61.97-1.32,1.69-1.73c.73-.4,1.56-.6,2.51-.6s1.73.2,2.45.59c.72.39,1.28.95,1.68,1.67.4.72.6,1.55.6,2.48,0,.35-.02.66-.07.93ZM485.89,615.44c-.01-.62-.24-1.12-.67-1.5-.44-.37-.97-.56-1.61-.56-.6,0-1.1.18-1.51.54s-.66.87-.75,1.51h4.55Z"/>
  </g>
</svg>