<?xml version="1.0" encoding="UTF-8"?>
<svg id="Layer_1" data-name="Layer 1" xmlns="http://www.w3.org/2000/svg" viewBox="0 0 465.09 92.89">
  <defs>
    <style>
      .cls-1 {
        fill-rule: evenodd;
      }

      .cls-1, .cls-2 {
        fill: #7ea254;
      }
    </style>
  </defs>
  <path class="cls-2" d="M251.11,28.56c5.95,0,11.02,2.15,15.26,6.47,4.2,4.28,6.29,9.45,6.29,15.52s-2.1,11.19-6.29,15.48c-4.24,4.28-9.31,6.41-15.26,6.41-5.44,0-10.21-1.85-14.31-5.52v16.77c0,1.01-.35,1.86-1.05,2.56-.73.7-1.58,1.05-2.56,1.05s-1.89-.35-2.62-1.05c-.69-.7-1.05-1.55-1.05-2.56v-51.46c0-1.01.36-1.87,1.05-2.58.73-.72,1.59-1.09,2.62-1.09s1.83.37,2.56,1.09c.7.7,1.05,1.57,1.05,2.58v1.86c4.1-3.68,8.87-5.52,14.31-5.52M251.11,65.17c3.94,0,7.32-1.42,10.12-4.28,2.77-2.88,4.16-6.33,4.16-10.34s-1.38-7.51-4.16-10.4c-2.8-2.84-6.17-4.28-10.12-4.28s-7.32,1.43-10.1,4.28c-2.8,2.88-4.21,6.35-4.21,10.4s1.41,7.46,4.21,10.34c2.79,2.85,6.16,4.28,10.1,4.28ZM300.4,28.6c1.01,0,1.87.37,2.56,1.09.73.7,1.09,1.57,1.09,2.58s-.36,1.86-1.09,2.56c-.69.73-1.55,1.09-2.56,1.09-3.56,0-6.59,1.42-9.11,4.28-2.51,2.88-3.77,6.35-3.77,10.4v18.28c0,1.01-.35,1.86-1.05,2.56-.73.7-1.58,1.05-2.56,1.05s-1.89-.35-2.62-1.05c-.69-.7-1.05-1.55-1.05-2.56v-36.61c0-1.01.36-1.87,1.05-2.58.73-.72,1.59-1.09,2.62-1.09s1.83.37,2.56,1.09c.7.7,1.05,1.57,1.05,2.58v1.43c3.73-3.4,8.03-5.1,12.88-5.1ZM347.87,28.6c1.01,0,1.86.37,2.56,1.09.7.7,1.05,1.57,1.05,2.58v36.61c0,1.01-.35,1.86-1.05,2.56-.7.7-1.55,1.05-2.56,1.05s-1.87-.35-2.58-1.05c-.72-.7-1.09-1.55-1.09-2.56v-1.91c-4.06,3.68-8.83,5.52-14.27,5.52-5.96,0-11.05-2.14-15.24-6.41-4.24-4.29-6.35-9.44-6.35-15.48s2.11-11.25,6.35-15.52c4.2-4.32,9.28-6.47,15.24-6.47,5.44,0,10.21,1.85,14.27,5.52v-1.86c0-1.01.37-1.87,1.09-2.58.7-.72,1.55-1.09,2.58-1.09ZM329.93,65.21c3.94,0,7.32-1.42,10.12-4.28,2.77-2.88,4.16-6.33,4.16-10.34s-1.38-7.51-4.16-10.4c-2.8-2.85-6.17-4.28-10.12-4.28s-7.32,1.42-10.12,4.28c-2.8,2.88-4.2,6.35-4.2,10.4s1.39,7.46,4.2,10.34c2.8,2.85,6.17,4.28,10.12,4.28ZM379.29,35.92c-3.94,0-7.32,1.42-10.12,4.28-2.8,2.88-4.2,6.35-4.2,10.4s1.39,7.46,4.2,10.34c2.8,2.85,6.17,4.28,10.12,4.28,4.82,0,8.67-2,11.55-6.03.57-.81,1.35-1.29,2.38-1.43.23-.05.45-.08.65-.08.73,0,1.41.23,2.03.69.82.57,1.31,1.37,1.47,2.38.05.24.08.45.08.66,0,.73-.24,1.41-.7,2.02-4.33,6.04-10.14,9.07-17.46,9.07-5.96,0-11.05-2.14-15.26-6.41-4.22-4.29-6.33-9.44-6.33-15.48s2.11-11.25,6.33-15.52c4.21-4.32,9.29-6.47,15.26-6.47,7.32,0,13.13,3.03,17.46,9.07.46.65.7,1.33.7,2.06,0,.21-.03.42-.08.66-.16.98-.65,1.78-1.47,2.38-.62.46-1.3.69-2.03.69-.2,0-.42-.03-.65-.07-1.02-.16-1.81-.65-2.38-1.49-2.88-4-6.73-5.99-11.55-5.99ZM421.85,28.6c1.01,0,1.87.37,2.56,1.09.7.7,1.06,1.57,1.06,2.58s-.36,1.86-1.06,2.56c-.69.73-1.55,1.09-2.56,1.09h-5.68v32.95c0,1.01-.35,1.86-1.05,2.56-.69.7-1.55,1.05-2.56,1.05s-1.87-.35-2.56-1.05c-.73-.7-1.1-1.55-1.1-2.56v-32.95h-5.63c-1.01,0-1.89-.36-2.62-1.09-.69-.7-1.05-1.55-1.05-2.56s.36-1.87,1.05-2.58c.73-.72,1.61-1.09,2.62-1.09h5.63v-11.19c0-1.02.37-1.87,1.1-2.58.69-.73,1.55-1.09,2.56-1.09s1.87.36,2.56,1.09c.7.7,1.05,1.55,1.05,2.58v11.19h5.68Z"/>
  <path class="cls-2" d="M174.14,0c12.56,0,23.33,4.55,32.29,13.69,8.94,9.05,13.41,20.01,13.41,32.86s-4.47,23.69-13.41,32.77c-8.97,9.05-19.73,13.58-32.29,13.58s-23.38-4.52-32.27-13.58c-8.97-9.08-13.44-19.98-13.44-32.77s4.47-23.81,13.44-32.86c8.88-9.13,19.65-13.69,32.27-13.69M174.14,85.83c10.59,0,19.65-3.82,27.18-11.49,7.53-7.74,11.27-17.02,11.27-27.79s-3.75-20.19-11.27-27.93c-7.53-7.67-16.59-11.49-27.18-11.49s-19.65,3.82-27.18,11.49c-7.49,7.74-11.27,17.05-11.27,27.93s3.78,20.05,11.27,27.79c7.53,7.67,16.59,11.49,27.18,11.49Z"/>
  <path class="cls-2" d="M36.41,46.96c-.82-3.21-2.55-5.86-5.17-7.94-2.7-2.1-5.75-3.15-9.15-3.15s-6.48,1.05-9.17,3.15c-2.62,2.08-4.34,4.73-5.18,7.94h28.67ZM22.09,72.48c-6.09,0-11.3-2.14-15.63-6.41-2.03-2.03-3.6-4.34-4.71-6.93-1.17-2.72-1.75-5.56-1.75-8.52,0-6.07,2.15-11.25,6.47-15.55,2.04-2.03,4.39-3.6,7.04-4.71,2.72-1.17,5.59-1.75,8.59-1.75,6.07,0,11.27,2.15,15.6,6.47,2.02,2.02,3.6,4.35,4.71,7,1.16,2.72,1.74,5.58,1.74,8.55,0,1.02-.35,1.87-1.05,2.58-.72.73-1.59,1.09-2.6,1.09H7.74c.84,3.16,2.58,5.76,5.22,7.82,2.67,2.07,5.71,3.11,9.13,3.11,5.4,0,9.56-1.65,12.49-4.94.65-.76,1.47-1.16,2.48-1.21,1.01-.05,1.9.25,2.64.9.76.66,1.16,1.51,1.21,2.52.05.98-.25,1.86-.93,2.6-4.36,4.93-10.32,7.4-17.9,7.4ZM100.48,28.6c5.31,0,9.85,2.15,13.61,6.47,3.77,4.28,5.64,9.45,5.64,15.52v18.28c0,.98-.35,1.83-1.05,2.56-.73.7-1.58,1.05-2.56,1.05s-1.89-.35-2.62-1.05c-.69-.73-1.05-1.58-1.05-2.56v-18.28c0-4.05-1.17-7.51-3.49-10.4-2.36-2.85-5.19-4.28-8.48-4.28s-6.12,1.42-8.48,4.28c-2.32,2.88-3.49,6.33-3.49,10.36v18.32c0,.98-.36,1.83-1.05,2.56-.73.7-1.59,1.05-2.58,1.05s-1.87-.35-2.6-1.05c-.7-.73-1.05-1.58-1.05-2.56v-18.32c0-4.02-1.17-7.48-3.51-10.36-2.36-2.85-5.18-4.28-8.48-4.28s-6.11,1.42-8.47,4.28c-2.34,2.88-3.51,6.35-3.51,10.4v18.28c0,1.01-.35,1.86-1.05,2.56-.73.7-1.58,1.05-2.56,1.05s-1.89-.35-2.62-1.05c-.69-.7-1.05-1.55-1.05-2.56v-36.61c0-1.01.36-1.87,1.05-2.58.73-.72,1.59-1.09,2.62-1.09s1.83.37,2.56,1.09c.7.7,1.05,1.57,1.05,2.58v1.13c3.53-3.2,7.53-4.79,11.98-4.79,6.57,0,11.78,3.05,15.64,9.15,3.84-6.09,9.04-9.15,15.6-9.15Z"/>
  <path class="cls-1" d="M174.18,71.34h-.04s0,0,0,0h-.04c-12.48-.02-20.62-6.24-25.63-16.71-.54-1.13-.9-2.35-1.6-2.91-2.78-2.24-6.53.05-6.04,2.91,4.2,14.76,18.16,23.75,33.26,23.77h0s0,0,0,0h.02s0,0,0,0h.02s0,0,0,0h.02s0,0,0,0h.02s0,0,0,0h0c15.09-.02,29.06-9.01,33.26-23.77.49-2.86-3.25-5.15-6.04-2.91-.69.56-1.06,1.78-1.6,2.91-5.01,10.47-13.14,16.69-25.63,16.71"/>
  <g>
    <path class="cls-2" d="M436.08,7.29h12.38v3.26h-4.15v9.93h-4.07v-9.93h-4.16v-3.26Z"/>
    <path class="cls-2" d="M450.26,7.29h5.36l2.07,8.02,2.05-8.02h5.35v13.18h-3.34v-10.05l-2.57,10.05h-3.02l-2.57-10.05v10.05h-3.34V7.29Z"/>
  </g>
</svg>