<?xml version="1.0" encoding="UTF-8"?>
<svg id="Layer_1" xmlns="http://www.w3.org/2000/svg" version="1.1" viewBox="0 0 1440 1024">
  <!-- Generator: Adobe Illustrator 29.3.0, SVG Export Plug-In . SVG Version: 2.1.0 Build 146)  -->
  <defs>
    <style>
      .st0 {
        fill: #1d71b8;
      }

      .st1 {
        fill: #3c3c3b;
      }
    </style>
  </defs>
  <g>
    <path class="st1" d="M712.26,604.12h-5.21l-8.46-9.62h-5.88v9.62h-4.45v-27.86c4.33,0,8.62.04,12.95.04,6.44,0,9.82,4.41,9.82,9.1,0,3.97-2.07,7.87-7.55,8.66l8.3,9.26.48.8ZM692.71,580.36v10.1h8.47c3.69,0,5.32-2.34,5.32-4.97s-1.63-5.13-5.29-5.13h-8.5Z"/>
    <path class="st1" d="M765.24,604.12h-20.54v-27.82h20.42v4.33h-15.97v7.51h15.34v4.13h-15.34v7.47h16.09v4.37Z"/>
    <path class="st1" d="M818.03,598.28h-15.06l-2.62,5.84h-4.73l12.48-27.82h4.85l12.48,27.82h-4.73l-2.66-5.84ZM810.52,580.99l-5.88,13.23h11.76l-5.88-13.23Z"/>
    <path class="st1" d="M861.52,576.31v23.68h14.66v4.13h-19.11v-27.82h4.45Z"/>
    <path class="st1" d="M910.74,580.32h-9.14v-4.01h22.73v4.01h-9.1v23.8h-4.49v-23.8Z"/>
    <path class="st1" d="M966.39,588.58l7.91-12.28h5.36v.2l-11.05,16.21v11.4h-4.45v-11.4l-10.73-16.21v-.2h5.29l7.67,12.28Z"/>
  </g>
  <g>
    <path class="st0" d="M618.65,490.56c-3.9,0-7.69.64-11.36,1.92-7.52,2.61-12.48,5.11-14.87,7.49v-6.33h-15.99v61.63l15.99,8.33v-35.31c0-10.1,4.97-19.32,14.91-27.65,4.88-4.11,9.46-6.16,13.74-6.16,2.05,0,4.14.61,6.25,1.83,2.44,1.33,3.66,2.94,3.66,4.83,0,3.55-1.94,6.72-5.83,9.49-3.39,2.44-6.97,3.83-10.74,4.16l12.49,14.16c3.66-1.72,7.16-4.33,10.49-7.83,3.94-4.11,5.91-7.8,5.91-11.08,0-3.83-1.37-7.24-4.09-10.24-5.63-6.16-12.48-9.24-20.55-9.24Z"/>
    <polygon class="st0" points="658.37 554.68 672.37 562.42 672.37 490.39 658.37 490.39 658.37 554.68"/>
    <path class="st0" d="M658.25,443.21c3.8,1.25,6.81,3.62,9.04,7.12l5.41,11.08c.67.22,1.44.33,2.33.33,1.05,0,1.69-.11,1.91-.33,0-1.39-.06-2.58-.17-3.58-1.11-2.11-2.47-5.86-4.08-11.24-1.72-5.72-3-9.27-3.83-10.66-1.5-2.55-4.44-4.8-8.83-6.75-2.66-1.17-6.13-2.41-10.41-3.75h-3.25v1.92c2.39,5.28,4,9.19,4.83,11.74.89,1.5,3.23,2.87,7.04,4.12Z"/>
    <path class="st0" d="M979.66,480.06v-9.99h-274.23c0-7.65-1.3-15.49-3.91-23.53-5.5-16.91-12.91-27.91-22.24-33.01l-16.82.17c4.33,2.83,9.05,7.71,14.16,14.63,8.49,11.53,12.74,25.45,12.74,41.74h-206.61v9.99h43.05v9.25c-.22.89-.64,1.39-1.25,1.5-20.82,0-31.23,6.39-31.23,19.17,0,3.72,1.14,7.2,3.41,10.42l4.08,5.75-.17.92c-3.11.28-6.14,1.56-9.08,3.84-3.28,2.45-4.91,5.14-4.91,8.09,0,5.34,4.33,11.09,12.99,17.26,4.16,2.95,7.72,4.42,10.66,4.42,4,0,10.58-2.01,19.74-6.04,9.16-4.02,15.74-6.04,19.74-6.04,4.33,0,7.83,1.49,10.49,4.45,2.66,2.97,4,6.65,4,11.03,0,2.5-.94,5.05-2.83,7.66-4.33,6.05-10.16,9.08-17.49,9.08-2.94,0-7.19-1.89-12.74-5.66-6.49-4.39-10.88-7.11-13.16-8.16-4.28-1.94-9.3-2.91-15.07-2.91-8.38,0-15.85,2.3-22.4,6.91-5.83,4.11-10.58,9.21-14.24,15.32-4,6.61-6,13.24-6,19.9,0,1.94.11,3.36.33,4.25,3.28-7,7.8-13.07,13.57-18.24,12.05-10.72,24.87-16.07,38.47-16.07,6.33,0,14.16,2.33,23.48,6.99,8.44,4.22,14.88,6.33,19.32,6.33,9.99,0,14.99-5.16,14.99-15.49,0-2.94-.64-7.33-1.91-13.16-1.45-6.61-3.8-12.05-7.08-16.32-4.05-5.38-9.05-8.02-14.99-7.91-6.5.11-15.05,2.75-25.65,7.91-8.99,4.39-15.07,6.58-18.24,6.58-1.72,0-3.39-.62-5-1.87-1.61-1.25-2.44-2.71-2.5-4.37-.06-1.22.72-2.8,2.33-4.75,4.05-4.94,11.63-7.41,22.73-7.41,8.72,0,15.1-.89,19.15-2.66,6.11-2.66,9.16-7.75,9.16-15.24,0-1.94-.2-3.55-.58-4.83-.11-.33-.58-1.19-1.42-2.58-.72-1.17-1.08-2.17-1.08-3,0-.72.53-1.44,1.58-2.16,1.05-.72,1.97-1.08,2.75-1.08,2.05,0,3.72,1.42,5,4.25.94,2.11,1.47,4.44,1.58,7l8.74-9.99c-.44-1.83-1.39-3.66-2.83-5.5-3.16-4-6.49-6-9.99-6-2.16.28-3.66.84-4.49,1.68l-3.21,3.79c-1.44,1.74-2.62,2.61-3.56,2.61-1.49-.61-2.24-2.23-2.24-4.85v-14.05h150.56v72.94l15.57,8.34v-18.08l30.79-24.8,32.19,32.03,4.72-.82-42.32-43.44-25.25,17.78.36-18.81.48-25.15h80.8v21.54c-.06.06-.2.22-.42.5-1.39,1.22-2.44,2.14-3.16,2.75v6.18c3.16-1.11,6.41-2.36,9.74-3.75,7.44-3.11,15.63-4.75,24.57-4.91,4-.11,7.15.36,9.45,1.42,2.3,1.06,4.68,3.14,7.12,6.25v7.66c-4.83-3.66-11.21-5.49-19.15-5.49-13.1,0-24.07,4.41-32.89,13.24-4.55,4.55-6.83,9.13-6.83,13.74,0,4.11,1.44,7.83,4.33,11.16,5.94,6.88,14.38,10.33,25.32,10.33,7.94,0,14.91-1.42,20.9-4.25,1.89-.89,4.3-2.19,7.24-3.91.72.5,1.08,1.64,1.08,3.41,7.66,3.17,12.08,4.97,13.24,5.41v-32.06c0-14.16-1.19-23.57-3.58-28.23-3.55-7-11.58-10.49-24.07-10.49-3,0-6.02.28-9.08.83-7.09,1.28-11.11,2.12-12.13,2.5-.04-.03-.07-.05-.11-.09-.22-.22-.45-.34-.67-.34v-13.4h139.91v11.37c-2.72.39-5.41,1.14-8.08,2.26-5.05,2.12-9.69,4.1-13.91,5.94-.44-.11-2.05-1-4.83-2.66-7.33-4.38-14.66-6.58-21.99-6.58-5.72,0-11.27,1.31-16.66,3.91-12.32,6-18.49,15.1-18.49,27.31,0,9.66,5.52,18.71,16.57,27.15,8.27,6.33,17.24,11.16,26.9,14.49l-15.82-15.32c-7.16-6.94-10.74-14.3-10.74-22.07,0-3.72,1.17-7.44,3.5-11.16,5.33-8.44,12.8-12.66,22.4-12.66,7.5,0,11.24,1.31,11.24,3.91-.06.28-.75,1.47-2.08,3.58-3.61,5.78-5.41,10.99-5.41,15.66l17.07,7c4.05-20.26,15.07-30.76,33.06-31.48,2.94-.11,5.91.36,8.91,1.42,6.16,2.17,9.24,6.03,9.24,11.59s-2.28,10.92-6.83,15.93c-4.22,4.67-9.36,8.62-15.41,11.84-6.39,3.45-12.52,5.34-18.4,5.67,9.55,9.79,14.91,14.68,16.07,14.68s3.94-1.56,8.33-4.67c3.55-2.5,6.19-4.53,7.91-6.08,9.16-8.22,13.74-18.06,13.74-29.51,0-7.95-1.72-14.25-5.16-18.92-3.33-4.5-8.77-8.14-16.32-10.92v-11.67h27.31ZM533.88,518.54c-2.33,2.72-5.28,5.11-8.83,7.16-4,2.33-7.58,3.47-10.74,3.41-3.05,0-5.76-1.08-8.12-3.25-2.36-2.16-3.54-4.77-3.54-7.83,0-5.61,2.78-10.58,8.33-14.91,5.16-4.05,10.63-6.08,16.41-6.08,7.16,0,10.74,3.36,10.74,10.08,0,4.28-1.42,8.08-4.25,11.41ZM822.85,543.19c-8.55,5.16-17.99,7.75-28.31,7.75-7.99,0-12.58-2.03-13.74-6.08,0-2.16,1.42-4.94,4.25-8.33,7.05-8.44,16.43-12.66,28.15-12.66,3.22,0,7.24.8,12.07,2.42,5.83,1.94,8.74,4.14,8.74,6.58s-3.72,5.83-11.16,10.33Z"/>
    <rect class="st1" x="736.66" y="537.4" width="6.45" height="6.45"/>
    <rect class="st1" x="728.51" y="545.54" width="6.45" height="6.45"/>
    <rect class="st1" x="736.66" y="545.54" width="6.45" height="6.45"/>
    <rect class="st1" x="728.51" y="537.4" width="6.45" height="6.45"/>
  </g>
</svg>