<?xml version="1.0" encoding="UTF-8"?>
<svg id="Layer_1" data-name="Layer 1" xmlns="http://www.w3.org/2000/svg" viewBox="0 0 382.58 278.34">
  <defs>
    <style>
      .cls-1 {
        fill: #7f0413;
      }
    </style>
  </defs>
  <g>
    <path class="cls-1" d="M327.26,78.1c-.42-6.32-2.4-11.14-9.33-12.41,4.11-6.98,4.44-8.61.17-15.13-5.23-7.98-10.97-15.64-16.67-23.3-3.69-4.96-8.27-8.09-15.04-4.91.4-6.37-3-9.89-8.08-12.23-10.73-4.96-21.78-8.97-33.62-10.03-2-.18-4.32,1.07-6.18,2.17-1.22.72-1.89,2.37-2.83,3.64-5.1-6.03-5.81-6.5-13-5.47-10.88,1.57-21.2,4.99-30.93,10.13-4.62,2.44-8.35,5.41-7.06,11.9-6.82-3.29-11.3.13-14.86,4.59-5.79,7.28-11.26,14.85-16.52,22.53-3.53,5.16-5.79,10.74.12,16.19-4.38,1.05-7.89,2.74-8.72,7.01-2.08,10.66-2.81,21.45-2.14,32.29.27,4.29.62,8.77,4.89,11.37,1.73,1.06,3.66,1.79,5.49,2.66-4.24,7.83-4.64,8.22.46,16.06,5.39,8.31,11.45,16.22,17.62,23.98,3.16,3.98,7.62,5.76,13.44,3.36-.25,5.76,2.24,9.63,6.93,11.55,8.14,3.34,16.3,6.9,24.77,9.11,6.65,1.73,14.43,4.5,19.21-4.18,4.26,5.1,6.48,6.34,10.19,5.84,10.76-1.47,21.04-4.49,30.86-9.21,5.55-2.68,10.39-5.71,10.05-12.87,6.9,1.36,8.51,1.11,12.97-3.16,8.71-8.33,15.26-18.26,20.58-29,1.72-3.47,1.45-6.9-1.39-9.88-.36-.38-.48-.99-.87-1.85,6.73-1.05,8.27-5.74,9.36-11.35,1.9-9.85.78-19.58.14-29.4ZM295.51,24.56c10.28,8.86,18.11,19.59,23.1,32.26,1.43,3.64-2.31,8.65-6.59,9.14.31-4.62.86-9.21.89-13.8.04-6.64-3.41-8.88-9.54-6.5-2.11.82-4.2,1.64-7.17,2.8,2.28-3.22,4.09-5.53,5.62-8.02,2.36-3.85,1.03-7.63-3.3-8.99-4.64-1.46-9.4-2.53-14.13-3.78,1.84-4.51,7.52-6.21,11.12-3.1ZM279.98,158.24c-3.12,4.68-5.47,8.83-8.44,12.46-2.23,2.72-4.11,2.24-6.08-.7-2.48-3.7-4.97-7.4-7.9-11.75h22.43ZM264.98,155.03c1.46-.81,2.93-1.61,4.38-2.44q5.34-3.03,10.34,2.66c-5.38.25-9.97.46-14.55.66-.06-.29-.12-.59-.17-.88ZM281.16,144.16c1-.9,2.06-1.76,2.95-2.77.78-.88,1.37-1.94,2.05-2.91.3.25.6.49.89.74-1.76,4.62-3.53,9.23-5.47,14.29-4.32-4.62-4.31-5.87-.43-9.35ZM291.29,133.56c3.42,4.51,6.47,8.33,9.28,12.31,1.69,2.4.46,4.44-1.92,5.23-4.81,1.6-9.76,2.81-15.69,4.47,2.94-7.79,5.46-14.45,8.32-22.02ZM279.12,29.4c-3.26,5.5-4.33,5.81-8.93,3.14-1.68-.97-3.39-1.89-5.63-3.14h14.55ZM257.75,26.76c1.37-2.23,2.42-4.04,3.57-5.79,1.48-2.25,3.06-4.42,4.54-6.68,1.7-2.59,3.86-2.82,5.62-.48,2.88,3.86,5.35,8.03,8.56,12.94h-22.28ZM281.77,31.59c1.62,4.39,3.19,8.65,4.9,13.29-8.66-5.34-9.97-8.86-4.9-13.29ZM283,29.13c5.69,1.67,10.58,2.71,15.13,4.57,3.71,1.5,3.94,3.05,1.65,6.21-2.62,3.63-5.54,7.04-8.81,11.16-2.71-7.47-5.14-14.15-7.98-21.94ZM308.81,70.37c-1.46,4.8-2.79,9.18-4.28,14.09-2.75-11.51-2.25-13.25,4.28-14.09ZM304.19,101.04c.2-.07.41-.14.62-.21,1.32,4.49,2.64,8.99,4.01,13.63-5.49-.53-6.89-2.45-5.81-7.32.44-2.02.79-4.06,1.18-6.1ZM296.44,58.04c3.69,2.95,7.37,5.91,11.19,8.97-4.91,3.03-6.68,2.56-8.63-1.88-.49-1.13-1.02-2.24-1.53-3.35-.5-1.09-1.02-2.17-1.52-3.25.17-.16.33-.33.5-.49ZM291.4,52.27c5.31-1.95,9.6-3.73,14.02-5.08,3.62-1.11,5.39,0,5.42,3.68.04,4.83-.57,9.66-.99,15.57-6.44-4.94-11.98-9.2-18.45-14.17ZM307.56,117.49c-.31.4-.53.84-.89,1.13-3.4,2.69-6.83,5.36-10.26,8.04-.16-.19-.33-.38-.49-.57.94-1.96,1.91-3.9,2.81-5.87,2.08-4.59,3.78-5.15,8.83-2.71ZM308.91,119c.41.15.81.3,1.22.44.24,4.96.64,9.93.65,14.89,0,2.73-1.98,4.14-4.51,3.41-4.51-1.31-8.9-3.06-14.33-4.97,6.29-5.1,11.63-9.44,16.97-13.78ZM304.46,93c5.87,1.79,11.06,3.26,16.13,5.07.68.25,1.39,2.56.99,3.3-1.5,2.72-3.37,5.26-5.31,7.72-1.42,1.81-3.16,3.38-5.3,5.61-2.24-7.47-4.23-14.1-6.51-21.69ZM304.59,91.25c2.18-7.31,4.18-14.01,6.45-21.62,3.52,4.19,6.71,7.56,9.4,11.29,2.56,3.55,1.36,6.25-2.79,7.39-3.16.86-6.33,1.75-9.52,2.55-.98.25-2.03.23-3.54.38ZM244.93,2.41c13.01,1.09,25.17,5.07,36.4,11.74,3.71,2.2,3.95,7.68.46,12.43-1.88-3.48-3.5-6.61-5.26-9.66-.73-1.26-1.63-2.48-2.68-3.47-4.43-4.2-6.79-3.97-10.42.87-1.36,1.81-2.74,3.62-5,5.23,0-2.39-.25-4.81.06-7.14.7-5.35-4.05-8.43-8.92-6.26-2.9,1.29-5.85,2.48-8.79,3.69-1.2.49-2.44.93-3.74,1.42-.37-6.43,2.08-9.34,7.9-8.86ZM256.88,12.65c-.08,4.14-.5,8.29-.84,13.55-6.39-4.32-12.19-8.24-18.97-12.81,5.12-2.11,9.26-4.16,13.62-5.51,4.49-1.39,6.26.11,6.18,4.77ZM237.13,15.62c4.25,2.87,8.32,5.62,12.38,8.36-.09.16-.17.32-.25.48-2.41-.36-4.81-.78-7.22-1.06-5-.58-5.97-1.93-4.91-7.78ZM189.67,14.32c7.22-3.75,14.86-6.79,22.55-9.51,4.2-1.48,8.84-1.88,13.33-2.42,5.12-.62,8.75,3.29,8.38,9.19-2.75-1.31-5.28-2.71-7.95-3.75-3.81-1.5-7.82-4.09-11.79-.96-3.8,3.01-2.18,7.41-1.97,11.36.03.57.07,1.14.17,2.87-2.24-2.98-3.85-5.09-5.43-7.21-3.26-4.36-7.3-4.46-10.42.07-2.63,3.82-4.83,7.94-7.22,11.93-4.06-3.28-4.3-9.17.33-11.58ZM214.59,26.38c-.25-5.24-.7-9.46-.6-13.67.1-4.56,2.37-6.25,6.78-4.83,4.12,1.33,8.01,3.39,13.04,5.58-6.75,4.54-12.54,8.43-19.22,12.91ZM228.81,23.41c-2.29.28-4.57.62-6.87.94-.02-.24-.04-.48-.07-.73,3.82-2.47,7.64-4.94,11.61-7.52.9,5.08-.3,6.77-4.68,7.3ZM191.5,155.4c2.69-5.51,4.41-6.09,8.53-3.69,2.29,1.33,4.62,2.59,6.57,3.69h-15.1ZM212.22,157.86c.2.36.41.71.62,1.07-2.57,3.85-5.02,7.78-7.75,11.51-1.72,2.34-4.59,2.18-6.79-.68-2.8-3.65-5.11-7.68-7.86-11.9h21.78ZM189.26,153.48c-1.89-4.92-3.68-9.55-5.47-14.18.32-.28.64-.56.96-.83,1.51,1.76,2.88,3.65,4.54,5.26,4.07,3.91,4.16,4.59-.04,9.76ZM187.73,155.38c-5.63-1.62-10.53-2.83-15.29-4.49-2.81-.98-3.63-3.24-1.67-5.82,2.78-3.67,5.69-7.23,9.1-11.54,2.77,7.71,5.12,14.23,7.85,21.85ZM167.82,77.82c-.45,2.03-.78,4.07-1.76,6.22-1.29-4.44-2.58-8.88-4.01-13.76,5.49.98,6.81,2.9,5.77,7.54ZM162.04,114.82c1.37-4.87,2.67-9.49,4.22-14.95,3.11,12,2.72,13.38-4.22,14.95ZM166.21,91.34c-6.17-.77-11.61-2.24-16.55-5.13-.6-.36-.57-3.17.14-4.16,2.87-4.05,6.13-7.83,9.24-11.71.37.13.73.27,1.1.4,1.96,6.66,3.93,13.32,6.07,20.6ZM166.21,93.47c-2.21,7.45-4.21,14.17-6.55,22.05-3.75-4.83-7.03-8.75-9.94-12.93-1.78-2.56-1-4.57,2.25-5.47,3.77-1.04,7.48-2.32,11.23-3.43.74-.22,1.58-.13,3.01-.23ZM159.83,130.11c.29-3.63.69-7.26,1.13-11.71,6.16,4.81,11.8,9.22,18.05,14.09-4.88,1.84-9.13,3.63-13.52,5.02-3.57,1.13-4.98.04-5.5-3.71-.17-1.21-.25-2.47-.15-3.69ZM163.28,117.57c4.57-2.45,6.96-1.75,8.64,2,1.04,2.34,2.17,4.63,2.92,7.36-3.79-3.07-7.58-6.14-11.56-9.36ZM162.96,67.46c4.18-3.46,7.78-6.45,11.37-9.42.18.16.36.31.54.46-1.26,2.89-2.24,5.94-3.87,8.62-1.95,3.21-4.63,1.38-8.04.34ZM160.81,66.61c-.35-5.85-.83-10.46-.83-15.07,0-3.59,1.82-5.02,5.24-4.14,4.33,1.13,8.52,2.77,13.7,4.49-6.42,5.22-11.85,9.63-18.11,14.71ZM189.02,31.8c3.98,2.71,4.24,5.44.99,8.43-1.7,1.57-3.38,3.15-5.07,4.73-.27-.11-.54-.22-.81-.33,1.63-4.26,3.25-8.52,4.9-12.83ZM179.77,51.38c-3.61-4.83-6.76-8.91-9.75-13.1-1.33-1.87-.3-3.5,1.51-4.12,5.02-1.73,10.14-3.21,15.22-4.78.21.34.42.68.63,1.02-2.41,6.63-4.82,13.27-7.61,20.98ZM191.83,29.1h13.95c-7.09,6.61-12.26,6.73-13.95,0ZM191.28,26.69c2.83-5.01,4.25-10.42,9.07-13.61.91-.6,3.45-.35,4.03.43,3.01,3.96,5.63,8.23,8.91,13.18h-22ZM152.28,56.41c5.04-12.67,13.04-23.26,23.25-32.21,2.95-2.58,8.31-.98,11.35,3.43-3.33.78-6.53,1.34-9.59,2.31-2.53.8-5.1,1.79-7.3,3.22-3.3,2.16-3.41,4.26-.97,7.37,1.21,1.54,2.45,3.06,3.62,4.63.49.66.83,1.45,1.63,2.88-3.01-.98-5.41-1.73-7.8-2.56-5.3-1.84-8.43.12-8.51,5.82-.07,4.28.47,8.57.73,12.86.04.58,0,1.18,0,1.78-4.72-.52-8.07-5.38-6.42-9.54ZM146.96,111.69c-3.05-13.01-3.14-26.05.15-39.03,1.1-4.36,7.03-6.39,10.89-3.87-2.95,3.58-6.1,7-8.78,10.76-3.8,5.36-2.58,8.65,3.68,10.7,2.19.72,4.46,1.2,7.53,2.01-3.38,1.11-6,1.92-8.59,2.84-4.51,1.6-5.95,5.37-3.24,9.33,2.06,3.02,4.65,5.68,7.02,8.49.83.99,1.69,1.96,2.61,3.02-4.51,2.27-10.27.03-11.27-4.26ZM174.74,159.96c-9.86-8.67-17.04-19.33-22.45-31.19-1.63-3.59,1.5-8.43,6.4-10.15-.27,4.59-.73,9.07-.76,13.54-.07,6.81,3.29,9.08,9.7,6.84,1.95-.68,3.88-1.39,6.91-2.5-2.3,3.28-4.03,5.65-5.65,8.09-2.42,3.62-2.01,6.23,2.04,8.01,3.76,1.65,7.9,2.43,11.9,3.56,1.25.36,2.53.6,3.89.91-2.56,4.66-8.4,6.04-11.98,2.89ZM225.06,182.76c-11.8-2.26-23.5-4.89-33.99-11.22-4.96-3-6-7.82-2.22-13.27,1.57,2.79,2.86,5.54,4.55,8.01,1.65,2.4,3.43,4.85,5.65,6.66,2.9,2.35,5.07,1.78,7.43-1.25,1.7-2.19,3.29-4.46,4.93-6.71.25.1.49.21.74.31,0,2.56-.08,5.13.01,7.69.2,5.25,2.88,7.24,8.09,5.75,3.64-1.05,7.14-2.54,10.7-3.83.89-.31,1.78-.6,2.72-.91.38,5.91-3.31,9.77-8.6,8.75ZM219.26,177.05c-3.13,1.03-5.31-.74-5.29-4.07.03-4.52.41-9.04.7-14.73,6.66,4.53,12.41,8.45,19.14,13.03-5.56,2.24-9.97,4.25-14.55,5.77ZM234.04,169.18c-4.33-2.85-8.12-5.34-11.9-7.82.14-.29.28-.58.41-.87,2.9.3,5.94.2,8.69,1.02,3.51,1.06,2.73,4.26,2.79,7.67ZM235.19,156.34c-35.31-.07-63.66-28.82-63.56-64.46.1-35.19,28.82-63.7,64.07-63.6,35.15.1,63.67,28.85,63.58,64.11-.08,35.52-28.64,64.03-64.09,63.96ZM256.73,171.94c-.29,4.89-2.57,6.3-7.16,4.65-3.85-1.39-7.51-3.3-11.83-5.24,6.17-4.37,11.85-8.39,18.43-13.05.25,5.38.8,9.54.56,13.65ZM242.28,161.25c2.03-.22,4.04-.55,6.05-.83.13.3.27.59.4.88-3.79,2.53-7.57,5.07-11.56,7.75-1.24-6.12-.43-7.19,5.11-7.79ZM280.95,170.74c-4.02,2.52-8.38,4.8-12.91,6.16-7.81,2.37-15.82,4.14-23.84,5.79-4.14.85-8.57-5.12-7.15-9.55,2.85,1.37,5.68,2.74,8.51,4.09.78.37,1.56.75,2.37,1.02,7.56,2.63,11.12.1,11.01-7.84-.02-1.84-.21-3.67-.4-6.66,1.86,2.53,3.16,4.3,4.45,6.08,4.09,5.59,7.95,5.62,11.8-.04,2.42-3.55,4.61-7.24,6.9-10.85,3.96,3,3.89,8.88-.75,11.8ZM317.86,130.34c-5.2,10.68-11.83,20.38-20.66,28.45-4.4,4.01-8.76,3.64-13.5-1.74,2.77-.6,5.2-.9,7.48-1.68,3.53-1.2,7.14-2.37,10.34-4.23,2.5-1.44,2.39-3.96.53-6.36-1.84-2.38-3.46-4.93-5.79-8.29,3.52,1.15,6.04,1.97,8.56,2.8,4.97,1.64,8.01-.25,8.05-5.55.04-4.99-.52-9.97-.81-14.95,6.29,1.81,8.51,5.95,5.79,11.55ZM324,112.06c-.83,3.92-6.84,6.08-11.18,3.93,2.08-2.34,4.17-4.53,6.08-6.87,1.53-1.89,3.1-3.83,4.2-5.97,1.65-3.22.82-5.71-2.48-7.28-2.93-1.39-6.1-2.29-9.6-3.57,3.22-1.07,6.02-1.92,8.77-2.91,4.12-1.5,5.25-3.74,3.22-7.66-1.5-2.88-3.72-5.4-5.76-7.97-1.34-1.7-2.94-3.19-4.48-4.84,4.39-2.63,10.28-.28,11.27,4.42,2.74,12.89,2.71,25.83-.04,38.72Z"/>
    <path class="cls-1" d="M210.27,116.64c-.04-.38-.02-.78.04-1.17-.02.21-.06.62-.04,1.17Z"/>
    <path class="cls-1" d="M252.6,146.06c-14.16,7.37-33.25,5.57-44.82-4.24-9.29-7.88-12.06-22.23-6.27-32.56,5.52-9.86,18.05-11.9,24.72-3.93,3.31,3.95,4.13,9.77,1.59,14.35-1.28,2.31-3.41,4.09-6.03,4.62-.46.09-.92.15-1.36.18-.19.01-.37.03-.55.03-.09,0-.19,0-.28,0-3.55.08-7.28-1.04-8.7-4.59-.9-2.25-.94-5,.56-7.03,1.76-2.39,4.8-2.85,7.45-1.82,1.47.58,2.87,1.36,4.53,2.16.39-3.19-1.19-5.12-3.73-6.33-4.84-2.32-10.08-.57-13.08,4.22-4.67,7.45-3.41,18.34,3.3,25.22,7.92,8.13,17.76,10.92,28.72,8.55,12.87-2.78,19-15.6,14.17-28.64-2.39-6.42-6.81-11.36-11.77-15.84-5.67-5.12-11.58-9.96-17.17-15.15-6.67-6.19-12.17-13.12-13.72-22.56-2.24-13.7,5.49-24.82,19.24-27.6,9.08-1.84,17.29.03,25.12,5.23.49-4.14,3.22-2.9,5.74-2.82v28.35h-5.29c0-4.43-.18-8.92.07-13.39.18-3.34-1.13-5.67-3.67-7.55-5.66-4.17-11.91-5.75-18.79-4-7.75,1.96-12.27,10.15-9.21,18.47,1.71,4.66,4.84,9.13,8.31,12.75,7.32,7.63,15.38,14.55,22.97,21.94,5.15,5,9.48,10.64,11.8,17.61,4.65,13.98-.81,27.61-13.82,34.39Z"/>
  </g>
  <path class="cls-1" d="M128.74,201.55c-1.52-1.75-3.7-2.62-6.55-2.62-7.26,0-12.83,3.43-16.71,10.3-3.88,6.87-5.82,14.21-5.82,22.02,0,3.67.88,6.97,2.65,9.89,1.77,2.92,4.36,4.38,7.75,4.38,4.28,0,8.09-1.8,11.48-5.41,3.38-3.61,5.06-7.52,5.06-11.75,0-.91-.47-1.55-1.41-1.89-.94-.34-1.97-.52-3.07-.52-1.6,0-2.86.24-3.75.73-.89.48-1.48.97-1.76,1.44-.28.49-.63,1.2-1.07,2.17-.44.97-.85,1.64-1.24,2.03-.39.39-.89.59-1.48.59-.74,0-1.22-.38-1.45-1.14-.23-.75-.34-1.62-.34-2.58,0-2.85.91-6.77,2.72-11.78,1.81-5.01,3.64-7.51,5.48-7.51.41,0,.73.14.97.41.23.28.34.6.34.97,0,.09-.1.54-.31,1.34-.2.81-.3,1.3-.3,1.48,0,.92.36,1.52,1.1,1.79.74.28,1.68.41,2.83.41,2.53,0,4.35-.65,5.47-1.97,1.13-1.31,1.69-3.24,1.69-5.82,0-2.89-.75-5.21-2.27-6.95Z"/>
  <path class="cls-1" d="M163.26,206.1c0-1.56-.17-2.8-.52-3.72-.34-.92-1.36-1.59-3.06-2-1.7-.41-2.92-.68-3.65-.79-.74-.12-1.45-.17-2.14-.17-1.33,0-2.27.36-2.82,1.07-.55.71-1.05,1.5-1.52,2.38l-9.92,19.14-.41.83h-.89c-1.06,0-1.87.1-2.45.3-.57.21-1.15.86-1.72,1.95-.57,1.1-1.04,2.25-1.38,3.46-.35,1.21-.52,2.55-.52,4.01,0,1,.48,1.58,1.44,1.71l-1.93,4.4c-.09.23-.2.52-.34.86-.14.34-.21.62-.21.85,0,.73.19,1.32.55,1.78.37.45.91.86,1.62,1.23.71.36,1.63.7,2.76,1.02,1.13.32,2.11.48,2.93.48s1.45-.32,1.89-.95c.44-.63.88-1.44,1.34-2.43l3.06-7.44h3.43c1.07,0,1.86-.34,2.37-1.03.51-.69,1.12-1.79,1.83-3.31l-.8,9.78-.09,1.92c0,1.57.48,2.58,1.44,3.03.97.46,2.34.7,4.14.7,1.92,0,3.28-.29,4.06-.86.78-.57,1.17-1.79,1.17-3.62l.55-15.11-.2-19.47ZM153.98,218.75l-.41,4.15-3.59-.07,2-4.36,2.76-6.65-.76,6.92Z"/>
  <path class="cls-1" d="M202.01,200.93c-.38-.28-1.02-.41-1.89-.41l-4.27-.2-8.8-.35-7.3-.28-2.61-.07c-.65,0-1.18.06-1.62.17-.44.12-.86.47-1.27,1.07-.41.6-.84,1.7-1.28,3.3-.44,1.59-.65,2.83-.65,3.71,0,.32.04.68.14,1.07.09.39.27.71.52.97.25.26.68.42,1.28.49.6.07,1.42.11,2.48.11h4.89l1.17.07-.28.83-7.43,25.1c-.14.46-.39,1.33-.76,2.61-.36,1.28-.54,2.24-.54,2.89,0,1.1.96,1.86,2.88,2.26,1.92.41,3.78.62,5.57.62,1.05,0,1.78-.3,2.16-.9.39-.6.75-1.58,1.07-2.96l3.65-13.78,2.34-8.41c.14-.5.39-1.31.75-2.41.23-.87.35-1.68.35-2.41,0-.65-.27-1.13-.79-1.45-.53-.32-1.48-.78-2.86-1.37l-2.07-.69h4.2l5.86.34,1.65.07c.78,0,1.36-.27,1.76-.8.39-.52.71-1.18.97-1.96.25-.78.54-1.66.86-2.66.33-.99.49-1.94.49-2.86,0-.87-.2-1.44-.59-1.72Z"/>
  <path class="cls-1" d="M234.95,200.24c-.62-.23-1.55-.34-2.79-.34l-3.45-.14-11.22-.41-6.75.14c-.41.04-.83.12-1.24.24-.41.12-.78.37-1.1.75-.32.39-.83,1.76-1.55,4.1-.71,2.34-1.07,3.88-1.07,4.62,0,.51.16.88.48,1.1.32.23.73.35,1.24.35l1.72.14-1.9,6.95h-.62c-1.42,0-2.4.52-2.92,1.55-.53,1.02-.97,2.24-1.31,3.66-.35,1.42-.52,2.72-.52,3.91,0,.64.17,1.08.5,1.34.34.25.85.42,1.52.52l-1.82,8.17-.14,1.1c0,.6.14,1.19.41,1.76.28.58.68,1.26,1.2,2.04.52.78,1.11,1.47,1.75,2.05.65.57,1.48.93,2.51,1.07,1.03.15,2.19.21,3.48.21h3.92c1.23.04,2.46.07,3.68.07h3.61c.87,0,1.62-.37,2.24-1.1.62-.73,1.13-1.81,1.51-3.24.39-1.43.59-2.64.59-3.66,0-.55-.08-1.02-.24-1.41-.17-.39-.51-.67-1.04-.83-.53-.16-1.05-.24-1.55-.24h-5.24l-4.82-.14,1.6-5.86,9.1.28,1.97.14c.54,0,.98-.16,1.29-.49.32-.32.7-.97,1.15-1.93.46-.96.87-2.08,1.26-3.34.39-1.26.58-2.47.58-3.61.09-.78-.35-1.28-1.33-1.52-.98-.23-2.55-.37-4.72-.41-2.16-.04-4.04-.07-5.63-.07l-.62-.07c.44-1.06.73-1.81.86-2.27.14-.46.21-.99.21-1.59.04-.46-.19-.87-.69-1.24-.74-.36-1.47-.73-2.21-1.1l-1.44-.69h1.72l3.86.14,7.51.34,2.28.07c.82,0,1.47-.12,1.92-.35.46-.23.91-.81,1.34-1.72.44-.92.86-2.09,1.24-3.51.39-1.42.59-2.66.59-3.72,0-.97-.31-1.56-.93-1.79Z"/>
  <path class="cls-1" d="M269.92,222.51c2.07-2.57,3.11-5.76,3.11-9.56,0-4.17-1.52-7.46-4.55-9.86-3.03-2.4-6.7-3.61-11.02-3.61-1.97,0-4.1.18-6.37.55-2.27.36-3.99.7-5.13.99-1.15.3-1.95.52-2.41.65s-.89.38-1.31.73c-.41.34-.92,1.51-1.52,3.51-.6,2-.97,3.59-1.1,4.78,0,.55.1,1,.31,1.34.2.34.56.52,1.07.52.64,0,1.31-.09,2-.28.69-.18,1.47-.46,2.34-.82l-3.22,11.46c-.78,2.66-1.81,6.33-3.08,11.02-1.28,4.7-1.92,7.38-1.92,8.07,0,1.14.94,1.95,2.82,2.43,1.87.49,3.66.73,5.36.73,1.18,0,1.91-.22,2.16-.65.25-.44.49-1.09.73-1.95l2.78-10.7,6.71,12.52c.18.33.69,1.34,1.51,3.05.87,1.52,1.69,2.28,2.47,2.28,1.15,0,2.78-.63,4.91-1.9,2.12-1.27,3.19-2.43,3.19-3.49,0-.51-.16-1.08-.48-1.73l-7.86-13.41c3.63-1.88,6.48-4.1,8.54-6.66ZM259.15,219.17c-1.71,1.3-3.53,1.95-5.45,1.95l.2-.55c.13-.41.43-1.32.87-2.74.45-1.42.68-2.56.68-3.43,0-1.01-.37-1.71-1.1-2.09-.73-.38-1.79-.7-3.17-.92l-2-.41-.83-.14c1.7-.46,2.92-.75,3.65-.89.73-.14,1.89-.21,3.45-.21s3.06.4,4.34,1.2c1.28.8,1.93,1.95,1.93,3.46,0,1.87-.86,3.46-2.57,4.76Z"/>
  <path class="cls-1" d="M310.2,200.24c-.62-.23-1.55-.34-2.79-.34l-3.45-.14-11.22-.41-6.75.14c-.41.04-.83.12-1.24.24-.41.12-.78.37-1.1.75-.33.39-.84,1.76-1.55,4.1-.71,2.34-1.07,3.88-1.07,4.62,0,.51.16.88.48,1.1.32.23.73.35,1.24.35l1.72.14-1.9,6.95h-.62c-1.42,0-2.39.52-2.92,1.55-.53,1.02-.97,2.24-1.31,3.66-.35,1.42-.52,2.72-.52,3.91,0,.64.17,1.08.51,1.34.33.25.84.42,1.52.52l-1.82,8.17-.14,1.1c0,.6.14,1.19.41,1.76.28.58.68,1.26,1.2,2.04.53.78,1.11,1.47,1.76,2.05.64.57,1.47.93,2.5,1.07,1.04.15,2.19.21,3.48.21h3.92c1.24.04,2.47.07,3.68.07h3.61c.87,0,1.62-.37,2.24-1.1.62-.73,1.13-1.81,1.52-3.24.38-1.43.58-2.64.58-3.66,0-.55-.08-1.02-.24-1.41-.16-.39-.51-.67-1.03-.83-.53-.16-1.05-.24-1.55-.24h-5.24l-4.82-.14,1.6-5.86,9.1.28,1.97.14c.54,0,.97-.16,1.28-.49.32-.32.7-.97,1.16-1.93.45-.96.87-2.08,1.26-3.34.38-1.26.57-2.47.57-3.61.09-.78-.35-1.28-1.33-1.52-.97-.23-2.55-.37-4.71-.41-2.17-.04-4.04-.07-5.63-.07l-.63-.07c.44-1.06.73-1.81.86-2.27.13-.46.2-.99.2-1.59.04-.46-.18-.87-.69-1.24-.73-.36-1.47-.73-2.21-1.1l-1.44-.69h1.72l3.86.14,7.51.34,2.28.07c.83,0,1.47-.12,1.93-.35.46-.23.9-.81,1.34-1.72.44-.92.85-2.09,1.24-3.51.38-1.42.58-2.66.58-3.72,0-.97-.3-1.56-.93-1.79Z"/>
  <path class="cls-1" d="M345.17,222.51c2.07-2.57,3.1-5.76,3.1-9.56,0-4.17-1.52-7.46-4.54-9.86-3.03-2.4-6.71-3.61-11.03-3.61-1.97,0-4.09.18-6.37.55-2.28.36-3.99.7-5.13.99-1.15.3-1.95.52-2.42.65-.46.14-.89.38-1.31.73-.41.34-.91,1.51-1.52,3.51-.6,2-.96,3.59-1.1,4.78,0,.55.1,1,.3,1.34.21.34.57.52,1.07.52.65,0,1.31-.09,2-.28.69-.18,1.47-.46,2.34-.82l-3.22,11.46c-.78,2.66-1.8,6.33-3.08,11.02-1.28,4.7-1.92,7.38-1.92,8.07,0,1.14.94,1.95,2.81,2.43,1.88.49,3.67.73,5.36.73,1.19,0,1.91-.22,2.16-.65.25-.44.49-1.09.72-1.95l2.78-10.7,6.72,12.52c.18.33.68,1.34,1.5,3.05.87,1.52,1.7,2.28,2.48,2.28,1.14,0,2.77-.63,4.9-1.9,2.13-1.27,3.19-2.43,3.19-3.49,0-.51-.16-1.08-.48-1.73l-7.85-13.41c3.63-1.88,6.47-4.1,8.54-6.66ZM334.4,219.17c-1.71,1.3-3.53,1.95-5.44,1.95l.2-.55c.14-.41.43-1.32.88-2.74.44-1.42.67-2.56.67-3.43,0-1.01-.37-1.71-1.1-2.09-.73-.38-1.79-.7-3.16-.92l-2-.41-.83-.14c1.71-.46,2.92-.75,3.66-.89.73-.14,1.88-.21,3.44-.21s3.06.4,4.34,1.2c1.28.8,1.93,1.95,1.93,3.46,0,1.87-.86,3.46-2.57,4.76Z"/>
  <path class="cls-1" d="M382.42,201.55c-.12-.41-.46-.85-1.04-1.31-.57-.46-1.44-.75-2.58-.89-1.15-.14-2.61-.21-4.41-.21-3.59,0-6.8.68-9.65,2.04-2.85,1.36-5.09,3.09-6.72,5.21-1.63,2.12-2.45,4.37-2.45,6.77s1.26,5.6,3.79,9.6c2.53,4.01,3.79,6.88,3.79,8.63,0,.92-.36,1.58-1.07,1.97-.71.39-1.58.59-2.58.59l-.55-.14.28-2.49c0-.46-.03-.81-.1-1.03-.07-.23-.36-.44-.86-.62-.5-.18-1.15-.29-1.92-.31-.78-.02-1.55-.04-2.28-.04-.87,0-1.65.11-2.34.31-.69.21-1.23.71-1.63,1.52-.38.81-.82,2.34-1.31,4.59-.48,2.25-.73,4-.73,5.24s.37,2.15,1.1,2.86c.74.72,1.84,1.15,3.31,1.31,1.47.16,3.33.24,5.58.24,4.87,0,8.86-1.24,11.96-3.73,3.1-2.48,4.65-6.14,4.65-10.98,0-2.67-.71-5.47-2.14-8.39-1.42-2.92-3.03-6.06-4.82-9.42,0-.87.36-1.5,1.07-1.87.71-.37,1.6-.62,2.66-.75l-.07,1.03c0,.88.32,1.31.97,1.31.46.09.91.15,1.38.17.46.02,1.03.04,1.72.04,1.42,0,2.58-.09,3.45-.28.87-.18,1.56-.73,2.07-1.65.5-.92.9-2.13,1.2-3.62.3-1.49.44-2.88.44-4.17,0-.6-.06-1.1-.17-1.52Z"/>
  <path class="cls-1" d="M118.47,161.57v35.21c-3.61.58-6.8,2.04-9.56,4.36v-47.22l9.56,7.64Z"/>
  <path class="cls-1" d="M110.06,247.94c3,0,5.81-.76,8.41-2.27v32.66l-9.56-7.99v-22.45c.37.03.75.05,1.14.05Z"/>
  <polygon class="cls-1" points="78.51 153.93 78.51 246.54 88.07 254.53 88.07 161.57 78.51 153.93"/>
  <path class="cls-1" d="M94.57,169.66c-.33-.9-.83-1.91-1.61-3.02-1.05-1.52-2.61-3.22-4.89-5.06l-9.56-7.64v22.82s-14.62,10.73-24.52,16.27l-4.82-5.15c.05-.49.86-9.47-5.41-13.81-3.55-2.46-7.45-2.1-9.73-1.89-7.06.65-15.59,5.32-15.94,10.82-.33,5.31,6.95,11.64,6.95,11.64-1.89,1.44-3.46,2.58-4.48,3.31-10.65,7.67-14.21,9.16-19.83,15.62-.01.01-.02.03-.03.04-1.1,1.75-.89,4.01.49,5.56l7.63,7.97c.1.11.25.16.38.16.13,0,.26-.04.36-.14.21-.2.23-.54.01-.75-1.11-1.15-4.12-4.72-1.52-7.49,3.12-3.35,7.38-7.73,19.63-15.64,12.25-7.9,19.9-12.69,19.9-12.69l3.73,3.65s-24.37,12.46-21.63,23.93c2.74,11.48,12.25,12.91,12.25,12.91,0,0,11.53,1.89,22.21-4.04,10.69-5.93,7.3-15.7,7.3-15.7,0,0-3.37-6.67-8.62-10.62,2.08-1.25,5.02-3.06,8.47-5.34,2.62-1.73,5.02-3.32,7.21-4.81,3.86-2.61,7.05-4.89,9.56-6.97,4.66-3.85,7.02-7.06,7.09-10.63.01-.81-.08-1.93-.59-3.32ZM43.73,180.03c-.07.43-.25.86-.44,1.26-2.17,4.77-7.53,7.1-11.69,9.76-1.63,1.04-3.24,2.09-4.87,3.11-.61.37-2.37-3.53-2.42-3.96-.22-1.84.76-3.07,1.97-4.3,3.14-3.24,6.36-5.9,10.92-6.74,1.13-.21,2.26-.31,3.41-.33.57-.01,1.15,0,1.71.04.35.02.81-.04,1.11.17.29.21.35.67.29,1ZM63.18,206.55c1.76,1.8,1.68,4.7-.19,6.4-4.78,4.34-14.08,11.39-23.21,10.26-1.21-.15-2.01-1.34-1.65-2.5.44-1.41,1.88-3.55,5.7-6.64,6.77-5.49,13.28-10.06,15.42-11.55l3.93,4.03Z"/>
  <rect class="cls-1" x="8.61" y="166.64" width="141.15" height="3.02"/>
  <path class="cls-1" d="M76.25,176.34c.22.09.43.17.65.13-.77-1.27-2.34-2.27-3.47-3.24-2.85-2.44-5.66-4.92-8.35-7.55-6.08-5.95-13.95-14.05-15.17-22.88-.76-5.48.71-10.98,3.38-15.75,1.44-2.56,3.36-5.28,5.93-7.88,8.18-8.27,20.02-11.82,31.46-11.46,16.09.5,33.11,6.35,41.43,21.11,4.52,8.02,5.68,17.73,3.91,26.77s-6.35,17.4-12.44,24.31c2.12,2.06,4.24,4.12,6.36,6.17.61.59,8.1-12.5,8.65-13.79,2.2-5.2,3.56-10.76,3.97-16.4.84-11.45-2.4-22.95-9-32.33-2.18-3.11-4.73-5.96-7.57-8.47-16.22-14.29-42.05-18.84-62.18-10.91-8.4,3.31-15.82,9.15-19.7,17.44-.55,1.18-1.02,2.39-1.4,3.64-3.26,10.72,1.6,22.01,7.83,30.64,6.51,9.02,15.25,16.33,25.65,20.42l.06.02Z"/>
</svg>