<?xml version="1.0" encoding="UTF-8"?>
<svg id="svg2" xmlns="http://www.w3.org/2000/svg" viewBox="0 0 403.25 300">
  <defs>
    <style>
      .cls-1 {
        fill: #009edb;
        fill-rule: evenodd;
      }
    </style>
  </defs>
  <path id="path10" class="cls-1" d="M66.15,92.75v124.43c0,3.37-.37,5.06.75,6.74.56,1.13,1.69,1.69,2.62,1.69,1.31,0,2.44-.56,3.18-1.87,1.12-1.69.94-3.38.94-6.93v-124.05h5.81v126.86c0,8.62-3.19,12.93-9.93,12.93-2.81,0-5.25-.93-7.12-2.99-1.87-2.06-2.81-5.25-2.81-9.74v-127.05h6.56Z"/>
  <path id="polygon12" class="cls-1" d="M128.17,231.79l-9.37-85.45v85.45h-5.06V92.75h6.75l9.56,80.2v-80.2h4.31v139.04h-6.18Z"/>
  <path id="polygon14" class="cls-1" d="M184.95,155.34v4.87h-9.18v65.77h10.49v5.81h-18.74V92.75h17.43v6h-9.18v56.59h9.18Z"/>
  <path id="polygon16" class="cls-1" d="M366.9,73.08v11.62H39.54v-11.62h327.36Z"/>
  <path id="polygon18" class="cls-1" d="M366.9,242.1v11.62H39.54v-11.62h327.36Z"/>
  <path id="polygon20" class="cls-1" d="M384.89,265.52v11.62H18.55v-11.62h366.34Z"/>
  <path id="polygon22" class="cls-1" d="M403.25,288.2v11.8H0v-11.8h403.25Z"/>
  <path id="polygon24" class="cls-1" d="M201.62,0l164.52,46.85v12.37L200.12,14.05,38.79,59.96h0v-12.37L201.62,0Z"/>
  <path id="polygon26" class="cls-1" d="M328.86,59.96h-33.92l-92-24.92-91.82,24.17-35.04.75h0l127.23-36.54,125.55,36.54Z"/>
  <path id="path28" class="cls-1" d="M231.61,132.86h7.12v-26.98s-.19-7.87-2.06-10.12c-1.87-2.06-4.12-3.94-8.99-3.94-4.68.19-5.81,1.5-7.5,3.56-1.88,2.06-2.62,5.62-2.62,9.37s.19,20.42.75,26.04c.56,5.44,5.81,27.55,8.81,38.23,2.81,10.87,4.12,16.3,4.31,19.3.19,3.18.56,13.87.19,19.11-.19,5.25,0,12.55,0,12.55,0,0,.37,5.81-3,5.81-3.56,0-3.19-5.81-3.19-5.81v-32.98h-7.12v32.79s-1.87,11.99,9.37,11.99,11.43-10.68,11.43-10.68v-29.98s-.56-9.93-2.44-16.86c-1.87-6.75-7.87-28.3-9.18-34.29-1.5-6.37-2.06-15.74-2.06-24.17s.19-13.68.19-13.68c0,0-.19-3.94,3-3.94,3,0,2.81,4.12,2.81,4.12l.19,30.54h0Z"/>
  <path id="path30" class="cls-1" d="M286.13,133.23h6.18v-32.42c0-5.06-2.81-10.12-9.75-10.12-6.37,0-10.11,4.68-10.11,10.3v121.8c0,5.43,3.75,10.12,10.11,10.12,6.94,0,9.75-4.87,9.75-9.94v-36.54h-6.18v36.35c0,1.88.19,4.12-3.56,4.12s-3.55-3.37-3.55-4.68v-120.86c0-1.31-.38-4.69,3.55-4.69s3.56,2.44,3.56,4.31v32.23h0Z"/>
  <path id="path32" class="cls-1" d="M337.85,90.69c-6.37,0-10.87,4.68-10.87,10.3v121.8c0,5.43,4.5,10.12,10.87,10.12,6.93,0,10.49-4.87,10.49-9.94v-122.17c0-5.06-3.56-10.12-10.49-10.12h0ZM342.16,222.8c0,1.88-.56,4.12-4.31,4.12-3.94,0-4.31-3.37-4.31-4.68v-120.86c0-1.31.37-4.69,4.31-4.69s4.31,2.44,4.31,4.31v121.8h0Z"/>
</svg>