<svg width="235" height="130" viewBox="0 0 235 130" fill="none" xmlns="http://www.w3.org/2000/svg">
<mask id="mask0_9_117" style="mask-type:alpha" maskUnits="userSpaceOnUse" x="0" y="0" width="235" height="130">
<rect width="235" height="130" fill="#2400FF"/>
</mask>
<g mask="url(#mask0_9_117)">
<path d="M80.0256 57.7323C80.0256 59.6784 80.2852 61.2353 80.5449 62.403C80.9343 63.5706 81.4536 64.7383 82.2326 66.1654C82.4923 66.5546 82.6221 66.9439 82.6221 67.3331C82.6221 67.852 82.3624 68.371 81.5835 68.89L78.3378 71.0955C77.8185 71.355 77.429 71.6145 77.0396 71.6145C76.5203 71.6145 76.001 71.355 75.4817 70.8361C74.7027 70.0576 74.1834 69.2792 73.6641 68.371C73.1448 67.4628 72.6255 66.5546 72.1062 65.2572C68.0816 70.0576 63.0184 72.3929 56.7867 72.3929C52.3726 72.3929 48.9972 71.0955 46.4006 68.6305C43.8041 66.1654 42.5059 62.7922 42.5059 58.6405C42.5059 54.2294 44.0638 50.5967 47.1796 48.0019C50.2954 45.4071 54.5797 43.9799 59.9025 43.9799C61.7201 43.9799 63.5377 44.1097 65.3552 44.3691C67.3026 44.6286 69.25 45.0178 71.3272 45.5368V41.7743C71.3272 37.8822 70.5483 35.0279 68.8605 33.471C67.1728 31.9141 64.4464 31.1357 60.4218 31.1357C58.6043 31.1357 56.7867 31.3952 54.8393 31.7844C52.8919 32.3033 51.0744 32.8223 49.2568 33.6007C48.4779 33.8602 47.8287 34.1197 47.4392 34.2494C47.0498 34.2494 46.7901 34.3792 46.6603 34.3792C45.8813 34.3792 45.6217 33.8602 45.6217 32.8223V30.2275C45.6217 29.4491 45.7515 28.8004 46.0112 28.4112C46.2708 28.0219 46.7901 27.6327 47.4392 27.3732C49.2568 26.4651 51.4639 25.6866 53.9305 25.0379C56.5271 24.3892 59.1236 24 61.9798 24C68.2114 24 72.6255 25.4271 75.6115 28.1517C78.4677 31.0059 79.8957 35.1576 79.8957 40.9959L80.0256 57.7323ZM58.9938 65.6465C60.6815 65.6465 62.4991 65.387 64.3166 64.7383C66.1342 64.0896 67.8219 62.9219 69.25 61.3651C70.029 60.3271 70.6781 59.2892 71.0676 57.9918C71.3272 56.6944 71.5869 55.2673 71.5869 53.4509V51.2453C70.029 50.8561 68.4711 50.5966 66.7833 50.3372C65.0956 50.0777 63.5377 50.0777 61.8499 50.0777C58.3446 50.0777 55.8779 50.7264 54.0604 52.1535C52.3726 53.5807 51.4639 55.5268 51.4639 58.1216C51.4639 60.5866 52.113 62.403 53.4112 63.5706C54.7095 65.1275 56.5271 65.6465 58.9938 65.6465ZM100.668 71.355C99.7591 71.355 99.11 71.2253 98.7205 70.8361C98.331 70.5766 97.9415 69.7981 97.6819 68.7602L85.4783 28.5409C85.2186 27.503 84.959 26.8543 84.959 26.4651C84.959 25.6866 85.3484 25.1677 86.2572 25.1677H91.3204C92.359 25.1677 93.0082 25.2974 93.3976 25.6866C93.7871 25.9461 94.1766 26.7245 94.4362 27.7625L103.135 62.1435L111.184 27.7625C111.443 26.7245 111.703 26.0758 112.222 25.6866C112.612 25.4271 113.391 25.1677 114.3 25.1677H118.454C119.493 25.1677 120.142 25.2974 120.531 25.6866C120.921 25.9461 121.31 26.7245 121.57 27.7625L129.749 62.5327L138.707 27.7625C138.967 26.7245 139.356 26.0758 139.746 25.6866C140.135 25.4271 140.784 25.1677 141.823 25.1677H146.626C147.405 25.1677 147.925 25.5569 147.925 26.4651C147.925 26.7245 147.925 26.984 147.795 27.2435C147.795 27.503 147.665 28.0219 147.405 28.5409L134.812 68.7602C134.552 69.7981 134.163 70.4468 133.774 70.8361C133.384 71.0955 132.735 71.355 131.826 71.355H127.412C126.373 71.355 125.724 71.2253 125.335 70.8361C124.945 70.4468 124.556 69.7981 124.296 68.7602L116.247 35.2874L108.198 68.7602C107.938 69.7981 107.678 70.4468 107.159 70.8361C106.77 71.2253 105.991 71.355 105.082 71.355H100.668ZM167.528 72.6524C164.802 72.6524 162.076 72.3929 159.479 71.7442C156.883 71.0955 154.805 70.4468 153.507 69.6684C152.728 69.1494 152.079 68.6305 151.949 68.2413C151.819 67.852 151.56 67.2033 151.56 66.8141V64.2193C151.56 63.1814 151.949 62.6624 152.728 62.6624C152.988 62.6624 153.377 62.6624 153.637 62.7922C153.897 62.9219 154.416 63.0517 154.935 63.3111C156.753 64.0896 158.57 64.7383 160.647 65.1275C162.725 65.5167 164.802 65.7762 166.879 65.7762C170.125 65.7762 172.721 65.2572 174.409 64.0896C176.227 62.9219 177.135 61.2353 177.135 59.1595C177.135 57.7323 176.616 56.5647 175.707 55.5268C174.799 54.4888 172.981 53.7104 170.514 52.8022L162.984 50.4669C159.219 49.2993 156.363 47.4829 154.675 45.1476C152.988 42.8123 152.079 40.3472 152.079 37.6227C152.079 35.4171 152.598 33.471 153.507 31.9141C154.416 30.3572 155.714 28.8004 157.272 27.6327C158.83 26.4651 160.647 25.5569 162.725 24.9082C164.802 24.2595 167.009 24 169.216 24C170.384 24 171.553 24 172.721 24.2595C173.89 24.3892 175.058 24.6487 176.097 24.7784C177.135 25.0379 178.174 25.2974 179.083 25.5569C179.992 25.8164 180.771 26.2056 181.29 26.4651C182.069 26.8543 182.588 27.2435 182.848 27.7625C183.107 28.1517 183.367 28.8004 183.367 29.4491V31.9141C183.367 32.952 182.978 33.6007 182.199 33.6007C181.809 33.6007 181.16 33.3413 180.251 32.952C177.265 31.6546 174.02 30.8762 170.255 30.8762C167.269 30.8762 164.932 31.3952 163.374 32.3033C161.816 33.2115 160.907 34.7684 160.907 36.974C160.907 38.4011 161.426 39.6985 162.465 40.6067C163.504 41.6446 165.451 42.5528 168.177 43.461L175.577 45.7963C179.342 46.9639 182.069 48.6506 183.627 50.7264C185.185 52.8022 185.964 55.2673 185.964 57.9918C185.964 60.1974 185.444 62.2732 184.665 63.9598C183.757 65.7762 182.458 67.3331 180.9 68.5007C179.342 69.7981 177.395 70.7063 175.188 71.355C172.591 72.3929 170.125 72.6524 167.528 72.6524Z" fill="#252F3E"/>
<path fill-rule="evenodd" clip-rule="evenodd" d="M177.394 97.9519C160.257 110.537 135.33 117.283 114.039 117.283C84.049 117.283 57.0452 106.255 36.6625 87.8322C35.1046 86.4051 36.5327 84.459 38.4801 85.4969C60.5505 98.3411 87.6842 105.996 115.856 105.996C134.811 105.996 155.713 102.104 174.927 93.93C177.654 92.7623 180.12 95.8761 177.394 97.9519Z" fill="#FF9900"/>
<path fill-rule="evenodd" clip-rule="evenodd" d="M184.404 89.908C182.196 87.0538 169.993 88.6106 164.41 89.2593C162.723 89.5188 162.463 87.9619 164.021 86.924C173.758 80.0478 189.856 81.9939 191.674 84.3292C193.491 86.6645 191.154 102.752 182.067 110.407C180.639 111.575 179.34 110.926 179.989 109.369C182.067 104.179 186.611 92.6326 184.404 89.908Z" fill="#FF9900"/>
</g>
</svg>
