<svg width="235" height="130" viewBox="0 0 235 130" fill="none" xmlns="http://www.w3.org/2000/svg">
<mask id="mask0_9_128" style="mask-type:alpha" maskUnits="userSpaceOnUse" x="0" y="0" width="235" height="130">
<rect width="235" height="130" fill="#2400FF"/>
</mask>
<g mask="url(#mask0_9_128)">
<path d="M170.272 72.4339L154.6 63.4551L151.897 62.2871L87.7832 62.7616V95.2461L170.272 95.2826V72.4339Z" fill="white"/>
<path d="M141.74 92.2892C142.507 89.6612 142.215 87.2522 140.936 85.4638C139.767 83.8213 137.795 82.8723 135.42 82.7628L90.4495 82.1788C90.1572 82.1788 89.9015 82.0328 89.7554 81.8138C89.6093 81.5948 89.5727 81.3028 89.6458 81.0108C89.7919 80.5728 90.2303 80.2443 90.7052 80.2078L136.078 79.6239C141.448 79.3684 147.293 75.0249 149.339 69.696L151.933 62.9436C152.042 62.6516 152.079 62.3596 152.006 62.0676C149.083 48.8548 137.283 39 123.182 39C110.177 39 99.1441 47.3949 95.1986 59.0382C92.6414 57.1402 89.3901 56.1182 85.883 56.4467C79.6361 57.0672 74.6312 62.0676 74.0102 68.309C73.8641 69.915 73.9737 71.4845 74.339 72.9445C64.1466 73.2365 56 81.5583 56 91.8147C56 92.7271 56.0731 93.6396 56.1827 94.5521C56.2557 94.9901 56.621 95.3186 57.0594 95.3186H140.06C140.535 95.3186 140.973 94.9901 141.119 94.5156L141.74 92.2892Z" fill="#404041"/>
<path d="M156.061 63.418C155.659 63.418 155.221 63.418 154.819 63.4545C154.527 63.4545 154.271 63.6735 154.161 63.9655L152.408 70.0609C151.641 72.6888 151.933 75.0978 153.212 76.8863C154.381 78.5287 156.353 79.4777 158.728 79.5872L168.299 80.1712C168.592 80.1712 168.847 80.3172 168.993 80.5362C169.139 80.7552 169.176 81.0837 169.103 81.3392C168.957 81.7772 168.518 82.1057 168.044 82.1422L158.07 82.7262C152.664 82.9817 146.855 87.3251 144.809 92.654L144.079 94.5155C143.933 94.8805 144.188 95.2455 144.59 95.2455H178.857C179.259 95.2455 179.624 94.99 179.734 94.5885C180.318 92.4715 180.647 90.245 180.647 87.9456C180.647 74.4043 169.651 63.418 156.061 63.418Z" fill="#404041"/>
</g>
</svg>
