<svg width="235" height="130" viewBox="0 0 235 130" fill="none" xmlns="http://www.w3.org/2000/svg">
<mask id="mask0_10_143" style="mask-type:alpha" maskUnits="userSpaceOnUse" x="0" y="0" width="235" height="130">
<rect width="235" height="130" fill="#2400FF"/>
</mask>
<g mask="url(#mask0_10_143)">
<path d="M166.308 71.8229C166.308 68.0977 165.981 64.5158 165.373 61.0771H116.949V81.3986H144.62C143.428 87.9655 139.806 93.5294 134.36 97.2546V110.436H150.977C160.699 101.29 166.308 87.8222 166.308 71.8229Z" fill="#4285F4"/>
<path d="M117.2 123C131.376 123 143.261 118.337 151.948 110.384L134.98 97.3181C130.278 100.443 124.264 102.289 117.2 102.289C103.525 102.289 91.9508 93.1286 87.8222 80.8203H70.2812V94.3121C78.9204 111.331 96.6761 123 117.2 123Z" fill="#34A853"/>
<path d="M87.3333 80.8204C86.2738 77.703 85.6718 74.373 85.6718 70.9486C85.6718 67.5241 86.2738 64.1942 87.3333 61.0768V47.6152H69.6347C65.9264 54.8555 63.9967 62.8462 64 70.9486C64 79.3325 66.0468 87.2677 69.6347 94.2819L87.3333 80.8204Z" fill="#FBBC05"/>
<path d="M116.982 38.711C124.654 38.711 131.543 41.3384 136.959 46.4984L151.948 31.5628C142.898 23.16 131.068 18 116.982 18C96.5533 18 78.8802 29.6692 70.2812 46.6877L87.7405 60.1795C91.85 47.8712 103.371 38.711 116.982 38.711Z" fill="#EA4335"/>
</g>
</svg>
