<svg width="235" height="130" viewBox="0 0 235 130" fill="none" xmlns="http://www.w3.org/2000/svg">
<mask id="mask0_9_138" style="mask-type:alpha" maskUnits="userSpaceOnUse" x="0" y="0" width="235" height="130">
<rect width="235" height="130" fill="#2400FF"/>
</mask>
<g mask="url(#mask0_9_138)">
<path d="M116.956 14C84.3997 14 58 40.3948 58 72.9557C58 99.0039 74.8926 121.103 98.3175 128.899C101.264 129.444 102.346 127.62 102.346 126.063C102.346 124.657 102.291 120.013 102.266 115.086C85.8641 118.653 82.4032 108.13 82.4032 108.13C79.7213 101.316 75.8572 99.5038 75.8572 99.5038C70.5081 95.8447 76.2604 95.9199 76.2604 95.9199C82.1806 96.3358 85.2978 101.995 85.2978 101.995C90.5561 111.008 99.0898 108.403 102.454 106.896C102.983 103.086 104.511 100.485 106.197 99.0127C93.1022 97.5219 79.3367 92.4667 79.3367 69.8765C79.3367 63.4399 81.6397 58.1807 85.4111 54.052C84.799 52.5671 82.781 46.5707 85.9822 38.45C85.9822 38.45 90.9329 36.8655 102.199 44.4932C106.902 43.1869 111.945 42.5319 116.956 42.5094C121.966 42.5319 127.013 43.1869 131.725 44.4932C142.978 36.8655 147.921 38.45 147.921 38.45C151.131 46.5707 149.112 52.5671 148.499 54.052C152.28 58.1807 154.567 63.4399 154.567 69.8765C154.567 92.5204 140.775 97.5063 127.647 98.9659C129.762 100.795 131.646 104.383 131.646 109.884C131.646 117.772 131.578 124.121 131.578 126.063C131.578 127.631 132.639 129.47 135.627 128.891C159.039 121.086 175.911 98.9951 175.911 72.9557C175.911 40.3948 149.515 14 116.956 14ZM80.0808 97.9837C79.951 98.2766 79.4902 98.3644 79.0704 98.1633C78.6428 97.971 78.4026 97.5717 78.5412 97.2778C78.6682 96.9762 79.1299 96.8922 79.5566 97.0943C79.9852 97.2866 80.2292 97.6898 80.0808 97.9837ZM82.9808 100.571C82.6996 100.832 82.15 100.711 81.7771 100.299C81.3914 99.8879 81.3192 99.3383 81.6043 99.0737C81.8942 98.813 82.4273 98.9351 82.8139 99.3461C83.1995 99.762 83.2747 100.308 82.9808 100.571ZM84.9703 103.882C84.6091 104.133 84.0184 103.898 83.6533 103.373C83.2921 102.849 83.2921 102.22 83.6611 101.969C84.0272 101.717 84.6091 101.943 84.9791 102.464C85.3393 102.997 85.3393 103.625 84.9703 103.882ZM88.3349 107.716C88.0118 108.073 87.3235 107.977 86.8198 107.491C86.3043 107.015 86.1608 106.341 86.4849 105.984C86.8119 105.627 87.5041 105.728 88.0118 106.21C88.5234 106.684 88.6796 107.364 88.3349 107.716ZM92.6834 109.011C92.5409 109.473 91.878 109.682 91.2102 109.486C90.5434 109.284 90.107 108.743 90.2417 108.277C90.3804 107.812 91.0462 107.593 91.7189 107.803C92.3847 108.004 92.8221 108.541 92.6834 109.011ZM97.6322 109.56C97.6488 110.046 97.0825 110.449 96.3816 110.458C95.6767 110.474 95.1065 110.08 95.0987 109.602C95.0987 109.111 95.6523 108.711 96.3572 108.7C97.0581 108.686 97.6322 109.077 97.6322 109.56ZM102.494 109.373C102.578 109.848 102.091 110.335 101.394 110.465C100.71 110.59 100.077 110.297 99.9896 109.826C99.9047 109.34 100.401 108.853 101.084 108.727C101.781 108.606 102.405 108.891 102.494 109.373Z" fill="#161614"/>
</g>
</svg>
