<svg width="235" height="130" viewBox="0 0 235 130" fill="none" xmlns="http://www.w3.org/2000/svg">
<mask id="mask0_9_119" style="mask-type:alpha" maskUnits="userSpaceOnUse" x="0" y="0" width="235" height="130">
<rect width="235" height="130" fill="#2400FF"/>
</mask>
<g mask="url(#mask0_9_119)">
<path d="M230.954 32.2828C231.445 32.7752 231.689 33.3673 231.689 34.0591C231.689 34.751 231.445 35.3431 230.954 35.8419C230.463 36.3375 229.869 36.5853 229.17 36.5853C228.47 36.5853 227.88 36.3407 227.392 35.8483C226.908 35.356 226.664 34.7639 226.664 34.072C226.664 33.3802 226.908 32.788 227.399 32.2893C227.89 31.7937 228.48 31.5459 229.176 31.5459C229.869 31.5459 230.463 31.7905 230.954 32.2828ZM230.742 35.6327C231.169 35.1951 231.384 34.6738 231.384 34.0656C231.384 33.4574 231.172 32.9393 230.748 32.5049C230.325 32.0736 229.805 31.858 229.189 31.858C228.573 31.858 228.053 32.0736 227.627 32.5081C227.2 32.9425 226.988 33.4638 226.988 34.0752C226.988 34.6867 227.2 35.208 227.62 35.6392C228.04 36.0704 228.56 36.286 229.176 36.286C229.792 36.286 230.312 36.0672 230.742 35.6327ZM230.389 33.5797C230.389 34.0302 230.193 34.3134 229.799 34.4292L230.521 35.4107H229.937L229.285 34.5H228.689V35.4107H228.217V32.6883H229.237C229.648 32.6883 229.943 32.7591 230.123 32.9007C230.302 33.0423 230.389 33.2675 230.389 33.5797ZM229.783 33.9626C229.879 33.8854 229.924 33.7534 229.924 33.5764C229.924 33.3995 229.876 33.274 229.78 33.2032C229.683 33.1324 229.51 33.1002 229.266 33.1002H228.689V34.0817H229.25C229.51 34.0785 229.69 34.0398 229.783 33.9626Z" fill="#6D6E71"/>
<path d="M60.8684 21.0837V26.0844H60.2267V21.0837H58.4043V20.4658H62.7005V21.0837H60.8684Z" fill="#6D6E71"/>
<path d="M69.8061 26.0837V23.6091H66.4308V26.0837H65.7891V20.4619H66.4308V23.0009H69.8061V20.4619H70.4478V26.0837H69.8061Z" fill="#6D6E71"/>
<path d="M74.9132 21.083V22.9301H77.7399V23.548H74.9132V25.4723H78.1794V26.0837H74.2715V20.4619H78.0768V21.0798H74.9132V21.083Z" fill="#6D6E71"/>
<path d="M53.5195 64.6095L66.9086 32.5068H69.4786L82.8676 64.6095H79.4858L75.3373 54.5726H60.9568L56.8532 64.6095H53.5195ZM68.2176 36.214L61.637 52.0851H74.6218L68.2176 36.214Z" fill="#D22128"/>
<path d="M86.3203 64.6095V32.5068H99.5746C105.074 32.5068 109.043 37.617 109.043 42.5888C109.043 47.8341 105.347 52.7609 99.8473 52.7609H89.4325V64.6063H86.3203V64.6095ZM89.4325 49.958H99.6644C103.45 49.958 105.886 46.4761 105.886 42.5888C105.886 38.5631 102.911 35.3097 99.3949 35.3097H89.4325V49.958Z" fill="#D22128"/>
<path d="M107.291 64.6095L120.68 32.5068H123.25L136.639 64.6095H133.257L129.109 54.5726H114.728L110.625 64.6095H107.291ZM121.989 36.214L115.408 52.0851H128.393L121.989 36.214Z" fill="#D22128"/>
<path d="M151.787 32.3242C157.466 32.3242 161.615 35.2172 163.598 39.333L161.073 40.8712C159.045 36.6202 155.076 35.1754 151.604 35.1754C143.939 35.1754 139.749 42.049 139.749 48.5139C139.749 55.6128 144.934 62.0327 151.739 62.0327C155.345 62.0327 159.584 60.2242 161.612 56.0633L164.227 57.4181C162.154 62.2097 156.472 64.8774 151.559 64.8774C142.768 64.8774 136.592 56.4688 136.592 48.3305C136.595 40.6009 142.139 32.3242 151.787 32.3242Z" fill="#D22128"/>
<path d="M193.877 32.5068V64.6095H190.72V49.5976H171.742V64.6095H168.633V32.5068H171.742V46.7947H190.72V32.5068H193.877Z" fill="#D22128"/>
<path d="M222.607 61.8034V64.6063H201.104V32.5068H222.203V35.3097H204.216V46.8848H219.905V49.5525H204.216V61.8066H222.607V61.8034Z" fill="#D22128"/>
<path d="M56.5055 71.4062C56.8841 71.5188 57.2177 71.6733 57.5001 71.8632L57.1696 72.5904C56.8809 72.3973 56.5728 72.2557 56.2424 72.1592C55.9151 72.0659 55.6007 72.0176 55.3055 72.0176C54.8691 72.0176 54.5194 72.0948 54.2595 72.2525C53.9996 72.4102 53.8681 72.6323 53.8681 72.9187C53.8681 73.1632 53.9419 73.3692 54.0863 73.5301C54.2306 73.691 54.4135 73.8165 54.6317 73.9066C54.8499 73.9967 55.1483 74.0996 55.5301 74.2155C55.9921 74.3635 56.3643 74.5019 56.6434 74.6306C56.9258 74.7593 57.1664 74.9492 57.3653 75.2034C57.5643 75.4544 57.6637 75.7891 57.6637 76.201C57.6637 76.5775 57.561 76.9025 57.3589 77.1857C57.1568 77.4657 56.868 77.6845 56.499 77.839C56.1269 77.9934 55.7001 78.0706 55.2156 78.0706C54.7312 78.0706 54.2627 77.9773 53.8071 77.7907C53.3515 77.604 52.9601 77.353 52.6328 77.0377L52.9761 76.3426C53.2841 76.6451 53.6403 76.88 54.0445 77.0473C54.4488 77.2147 54.8403 77.2983 55.2253 77.2983C55.7162 77.2983 56.1012 77.2018 56.3835 77.0119C56.6659 76.8221 56.8071 76.5646 56.8071 76.2428C56.8071 75.9918 56.7333 75.7827 56.5857 75.6185C56.4381 75.4544 56.2552 75.3289 56.037 75.2356C55.8188 75.1455 55.5205 75.0425 55.1386 74.9267C54.683 74.7915 54.3141 74.6596 54.0285 74.5341C53.7429 74.4086 53.5023 74.2219 53.3066 73.9709C53.1109 73.7231 53.0114 73.3949 53.0114 72.9862C53.0114 72.6355 53.1077 72.3298 53.3002 72.0659C53.4927 71.802 53.7686 71.5961 54.1216 71.4512C54.4777 71.3064 54.8852 71.2324 55.3472 71.2324C55.7418 71.2356 56.1236 71.2936 56.5055 71.4062Z" fill="#6D6E71"/>
<path d="M66.5313 71.7028C67.0703 72.0053 67.5003 72.4204 67.8147 72.9385C68.1291 73.4598 68.2896 74.0294 68.2896 74.6537C68.2896 75.2812 68.1323 75.8572 67.8147 76.3786C67.5003 76.9031 67.0703 77.315 66.5313 77.6207C65.9923 77.9264 65.3987 78.0809 64.7602 78.0809C64.1089 78.0809 63.5153 77.9296 62.9731 77.6207C62.4341 77.315 62.0041 76.8999 61.6897 76.3786C61.3753 75.854 61.2148 75.2812 61.2148 74.6537C61.2148 74.0262 61.3721 73.4534 61.6897 72.9321C62.0041 72.4108 62.4341 71.9989 62.9731 71.6996C63.5121 71.3971 64.1089 71.2491 64.7602 71.2491C65.3987 71.2459 65.9891 71.3971 66.5313 71.7028ZM63.3806 72.3432C62.9603 72.5813 62.6234 72.9063 62.3731 73.3118C62.1228 73.7173 61.9945 74.1646 61.9945 74.6537C61.9945 75.1461 62.1196 75.5966 62.3731 76.0053C62.6234 76.4139 62.9603 76.739 63.3806 76.9771C63.8009 77.2152 64.2597 77.3343 64.757 77.3343C65.2543 77.3343 65.7099 77.2152 66.127 76.9771C66.5441 76.739 66.8746 76.4172 67.1249 76.0053C67.3719 75.5966 67.4971 75.1461 67.4971 74.6537C67.4971 74.1614 67.3719 73.7141 67.1249 73.3086C66.8778 72.9031 66.5441 72.5813 66.127 72.3432C65.7099 72.1051 65.2543 71.9828 64.7602 71.9828C64.2629 71.9828 63.8041 72.1018 63.3806 72.3432Z" fill="#6D6E71"/>
<path d="M73.1541 72.0112V74.3925H76.3113V75.1391H73.1541V78.0417H72.3809V71.2646H76.6738V72.0112H73.1541Z" fill="#6D6E71"/>
<path d="M82.9444 72.0112V78.0417H82.1712V72.0112H79.9766V71.2646H85.1551V72.0112H82.9444Z" fill="#6D6E71"/>
<path d="M95.1424 78.0417L93.32 72.333L91.4719 78.0417H90.6858L88.4238 71.2646H89.2548L91.1125 77.1439L92.9446 71.2743L93.7178 71.2646L95.5691 77.1439L97.4012 71.2646H98.2033L95.9381 78.0417H95.1424Z" fill="#6D6E71"/>
<path d="M102.054 76.3298L101.3 78.0417H100.479L103.507 71.2646H104.309L107.329 78.0417H106.491L105.737 76.3298H102.054ZM103.889 72.1464L102.384 75.5832H105.413L103.889 72.1464Z" fill="#6D6E71"/>
<path d="M114.05 75.8825C113.858 75.8953 113.707 75.9018 113.598 75.9018H111.801V78.0417H111.031V71.2646H113.598C114.439 71.2646 115.093 71.4642 115.562 71.86C116.027 72.2558 116.261 72.8189 116.261 73.543C116.261 74.0965 116.13 74.5631 115.87 74.9364C115.61 75.3097 115.234 75.58 114.747 75.7409L116.325 78.0417H115.449L114.05 75.8825ZM115.019 74.753C115.35 74.4826 115.517 74.0836 115.517 73.5623C115.517 73.0506 115.35 72.6645 115.019 72.4038C114.689 72.1432 114.214 72.0112 113.598 72.0112H111.801V75.1584H113.598C114.214 75.1584 114.689 75.0233 115.019 74.753Z" fill="#6D6E71"/>
<path d="M121.34 72.0112V74.2381H124.747V74.9846H121.34V77.3048H125.28V78.0417H120.566V71.2646H125.151V72.0112H121.34Z" fill="#6D6E71"/>
<path d="M136.056 72.0112V74.3925H139.214V75.1391H136.056V78.0417H135.283V71.2646H139.576V72.0112H136.056Z" fill="#6D6E71"/>
<path d="M148.129 71.7028C148.668 72.0053 149.098 72.4204 149.412 72.9385C149.727 73.4598 149.887 74.0294 149.887 74.6537C149.887 75.2812 149.73 75.8572 149.412 76.3786C149.098 76.9031 148.668 77.315 148.129 77.6207C147.59 77.9264 146.996 78.0809 146.358 78.0809C145.707 78.0809 145.113 77.9296 144.571 77.6207C144.032 77.315 143.602 76.8999 143.287 76.3786C142.973 75.854 142.812 75.2812 142.812 74.6537C142.812 74.0262 142.97 73.4534 143.287 72.9321C143.602 72.4108 144.032 71.9989 144.571 71.6996C145.11 71.3971 145.707 71.2491 146.358 71.2491C147 71.2459 147.59 71.3971 148.129 71.7028ZM144.981 72.3432C144.561 72.5813 144.224 72.9063 143.974 73.3118C143.724 73.7173 143.595 74.1646 143.595 74.6537C143.595 75.1461 143.72 75.5966 143.974 76.0053C144.224 76.4139 144.561 76.739 144.981 76.9771C145.402 77.2152 145.861 77.3343 146.358 77.3343C146.855 77.3343 147.311 77.2152 147.728 76.9771C148.145 76.739 148.475 76.4172 148.726 76.0053C148.973 75.5966 149.098 75.1461 149.098 74.6537C149.098 74.1614 148.973 73.7141 148.726 73.3086C148.479 72.9031 148.145 72.5813 147.728 72.3432C147.311 72.1051 146.855 71.9828 146.361 71.9828C145.861 71.9828 145.402 72.1018 144.981 72.3432Z" fill="#6D6E71"/>
<path d="M158.763 77.3311C158.259 77.8299 157.566 78.0809 156.684 78.0809C155.795 78.0809 155.099 77.8299 154.595 77.3311C154.091 76.8323 153.838 76.1405 153.838 75.2523V71.262H154.611V75.2523C154.611 75.9056 154.797 76.414 155.166 76.7809C155.538 77.1477 156.042 77.3311 156.684 77.3311C157.329 77.3311 157.832 77.1477 158.195 76.7841C158.561 76.4204 158.74 75.9088 158.74 75.2491V71.2588H159.514V75.2491C159.517 76.1405 159.267 76.8323 158.763 77.3311Z" fill="#6D6E71"/>
<path d="M168.863 78.0417L164.81 72.6001V78.0417H164.037V71.2646H164.839L168.892 76.7127V71.2646H169.655V78.0417H168.863Z" fill="#6D6E71"/>
<path d="M178.772 71.712C179.298 72.0112 179.715 72.4167 180.02 72.9316C180.328 73.4464 180.479 74.0225 180.479 74.6532C180.479 75.2839 180.325 75.8632 180.02 76.378C179.715 76.8961 179.295 77.3016 178.759 77.5977C178.226 77.8937 177.63 78.0417 176.978 78.0417H174.273V71.2646H177.007C177.658 71.2646 178.246 71.4127 178.772 71.712ZM175.047 77.3048H177.017C177.514 77.3048 177.966 77.1922 178.374 76.9637C178.781 76.7352 179.105 76.4199 179.343 76.0144C179.58 75.6122 179.699 75.1616 179.699 74.6628C179.699 74.1641 179.577 73.7168 179.336 73.3145C179.096 72.9123 178.769 72.5969 178.355 72.362C177.944 72.1303 177.488 72.0112 176.988 72.0112H175.047V77.3048Z" fill="#6D6E71"/>
<path d="M184.876 76.3298L184.122 78.0417H183.301L186.33 71.2646H187.132L190.151 78.0417H189.317L188.563 76.3298H184.876ZM186.711 72.1464L185.207 75.5832H188.235L186.711 72.1464Z" fill="#6D6E71"/>
<path d="M195.221 72.0112V78.0417H194.45V72.0112H192.256V71.2646H197.434V72.0112H195.221Z" fill="#6D6E71"/>
<path d="M201.152 78.0417V71.2646H201.926V78.0417H201.152Z" fill="#6D6E71"/>
<path d="M211.352 71.7028C211.891 72.0053 212.321 72.4204 212.635 72.9385C212.949 73.4598 213.11 74.0294 213.11 74.6537C213.11 75.2812 212.953 75.8572 212.635 76.3786C212.321 76.9031 211.891 77.315 211.352 77.6207C210.813 77.9264 210.219 78.0809 209.581 78.0809C208.929 78.0809 208.336 77.9296 207.793 77.6207C207.254 77.315 206.824 76.8999 206.51 76.3786C206.196 75.854 206.035 75.2812 206.035 74.6537C206.035 74.0262 206.192 73.4534 206.51 72.9321C206.824 72.4108 207.254 71.9989 207.793 71.6996C208.332 71.3971 208.929 71.2491 209.581 71.2491C210.222 71.2459 210.813 71.3971 211.352 71.7028ZM208.204 72.3432C207.784 72.5813 207.447 72.9063 207.197 73.3118C206.946 73.7173 206.818 74.1646 206.818 74.6537C206.818 75.1461 206.943 75.5966 207.197 76.0053C207.447 76.4139 207.784 76.739 208.204 76.9771C208.624 77.2152 209.083 77.3343 209.581 77.3343C210.078 77.3343 210.533 77.2152 210.951 76.9771C211.368 76.739 211.698 76.4172 211.948 76.0053C212.195 75.5966 212.321 75.1461 212.321 74.6537C212.321 74.1614 212.195 73.7141 211.948 73.3086C211.701 72.9031 211.368 72.5813 210.951 72.3432C210.533 72.1051 210.078 71.9828 209.584 71.9828C209.083 71.9828 208.628 72.1018 208.204 72.3432Z" fill="#6D6E71"/>
<path d="M222.027 78.0417L217.974 72.6001V78.0417H217.201V71.2646H218.003L222.056 76.7127V71.2646H222.819V78.0417H222.027Z" fill="#6D6E71"/>
<path d="M42.4687 5.44113C41.0153 6.30355 38.5993 8.73957 35.7148 12.2729L38.3651 17.2898C40.226 14.622 42.1158 12.2214 44.0216 10.1716C44.1692 10.0075 44.2462 9.93022 44.2462 9.93022C44.1724 10.0107 44.0986 10.0911 44.0216 10.1716C43.4056 10.8538 41.535 13.042 38.7116 17.3927C41.4292 17.2576 45.6066 16.6977 49.014 16.1152C50.0279 10.4194 48.0194 7.81278 48.0194 7.81278C48.0194 7.81278 45.4622 3.66801 42.4687 5.44113Z" fill="url(#paint0_linear_9_119)"/>
<path d="M33.5648 47.5742C33.2247 47.6354 32.8782 47.6965 32.522 47.7576C32.5188 47.7576 32.5188 47.7609 32.5156 47.7609C32.6953 47.7351 32.875 47.7062 33.0482 47.6772C33.2247 47.645 33.3947 47.6096 33.5648 47.5742Z" fill="#BE202E"/>
<path opacity="0.35" d="M33.5648 47.5742C33.2247 47.6354 32.8782 47.6965 32.522 47.7576C32.5188 47.7576 32.5188 47.7609 32.5156 47.7609C32.6953 47.7351 32.875 47.7062 33.0482 47.6772C33.2247 47.645 33.3947 47.6096 33.5648 47.5742Z" fill="#BE202E"/>
<path d="M34.4537 43.1875C34.4505 43.1875 34.4505 43.1875 34.4537 43.1875C34.4505 43.1907 34.4473 43.1907 34.4473 43.1907C34.505 43.1843 34.5596 43.1746 34.6141 43.165C34.8387 43.1328 35.0601 43.0942 35.2783 43.0459C35.0055 43.0942 34.7328 43.1392 34.4537 43.1875Z" fill="#BE202E"/>
<path opacity="0.35" d="M34.4537 43.1875C34.4505 43.1875 34.4505 43.1875 34.4537 43.1875C34.4505 43.1907 34.4473 43.1907 34.4473 43.1907C34.505 43.1843 34.5596 43.1746 34.6141 43.165C34.8387 43.1328 35.0601 43.0942 35.2783 43.0459C35.0055 43.0942 34.7328 43.1392 34.4537 43.1875Z" fill="#BE202E"/>
<path d="M30.5475 30.2514C31.3528 28.7421 32.1678 27.2651 32.9923 25.8298C33.849 24.3367 34.7153 22.8918 35.588 21.4952C35.6393 21.4115 35.6907 21.3279 35.742 21.2474C36.6083 19.8734 37.481 18.554 38.3601 17.2925L35.7099 12.2725C35.511 12.517 35.3089 12.7648 35.1067 13.019C34.3431 13.9748 33.5474 15.0013 32.7357 16.0922C31.818 17.3215 30.8747 18.6312 29.9186 20.0085C29.0331 21.2796 28.1379 22.6119 27.2395 23.9892C26.4759 25.1637 25.7091 26.3705 24.9487 27.6094C24.9198 27.6544 24.8909 27.7027 24.8652 27.7478L28.3144 34.5796C29.0459 33.1122 29.7935 31.6673 30.5475 30.2514Z" fill="url(#paint1_linear_9_119)"/>
<path d="M14.839 68.7486C14.3834 70.0069 13.9245 71.2876 13.4625 72.5974C13.4561 72.6167 13.4497 72.636 13.4433 72.6553C13.3791 72.8387 13.3117 73.0254 13.2475 73.2088C12.9363 74.0905 12.67 74.8854 12.0508 76.6906C13.0679 77.1573 13.8828 78.3801 14.6529 79.767C14.5694 78.3286 13.9791 76.9803 12.8497 75.9344C17.8581 76.1597 22.1736 74.8918 24.4035 71.2168C24.6024 70.8886 24.7853 70.5443 24.9489 70.1807C23.935 71.4711 22.6773 72.0181 20.3126 71.8862C23.7971 70.3222 25.5457 68.8194 27.089 66.3319C27.4547 65.743 27.8109 65.0962 28.1734 64.3818C25.1286 67.5194 21.596 68.414 17.8774 67.735L15.0892 68.0407C15.0122 68.2756 14.9256 68.5105 14.839 68.7486Z" fill="url(#paint2_linear_9_119)"/>
<path d="M16.1432 62.4823C16.7464 60.9216 17.3656 59.3384 18.0041 57.7455C18.6137 56.2201 19.2394 54.6819 19.8811 53.1373C20.5228 51.5927 21.1773 50.0448 21.8447 48.497C22.5249 46.9201 23.2211 45.3498 23.927 43.7826C24.6264 42.2347 25.3387 40.6965 26.0638 39.1712C26.3237 38.6209 26.5868 38.0739 26.8531 37.53C27.3087 36.5872 27.7708 35.6507 28.236 34.724C28.2617 34.6725 28.2873 34.6242 28.313 34.5759L24.8639 27.7441C24.8061 27.8375 24.7516 27.9308 24.6938 28.0209C23.8885 29.337 23.0896 30.6822 22.3067 32.0562C21.5142 33.4432 20.7345 34.8591 19.9741 36.2943C19.3324 37.5043 18.7036 38.7271 18.094 39.9596C17.972 40.2106 17.8501 40.4584 17.7314 40.7062C16.9806 42.2573 16.3004 43.7569 15.6876 45.1953C14.9914 46.8268 14.3817 48.3875 13.8427 49.8646C13.4898 50.8364 13.1689 51.7761 12.877 52.6771C12.6363 53.4494 12.4053 54.2185 12.1871 54.9876C11.6738 56.7994 11.2278 58.6047 10.8652 60.4035L14.3272 67.2707C14.786 66.0447 15.2544 64.7993 15.7389 63.5378C15.8705 63.1871 16.0084 62.8363 16.1432 62.4823Z" fill="url(#paint3_linear_9_119)"/>
<path d="M10.8127 60.6518C10.3763 62.8465 10.0683 65.0347 9.91429 67.2101C9.90788 67.2873 9.90146 67.3613 9.89825 67.4385C8.81699 65.7008 5.91972 64.0017 5.92614 64.021C7.99883 67.0363 9.57419 70.029 9.80521 72.967C8.69507 73.1955 7.17424 72.8641 5.41599 72.2172C7.24804 73.9067 8.62448 74.3733 9.1603 74.4988C7.47584 74.605 5.72401 75.7635 3.95934 77.0989C6.54217 76.0434 8.62769 75.6251 10.1228 75.963C7.75177 82.6886 5.37749 90.1157 3 97.9998C3.72833 97.7842 4.16147 97.295 4.40853 96.6289C4.83205 95.2001 7.64268 85.8293 12.0447 73.5173C12.1699 73.1666 12.295 72.8158 12.4233 72.4586C12.4586 72.3621 12.4939 72.2623 12.5292 72.1625C12.9944 70.8721 13.4757 69.5527 13.9762 68.2076C14.0885 67.9019 14.204 67.5962 14.3195 67.2873C14.3228 67.2808 14.3228 67.2744 14.326 67.268L10.864 60.4072C10.848 60.4909 10.8287 60.5713 10.8127 60.6518Z" fill="url(#paint4_linear_9_119)"/>
<path d="M28.848 35.1518C28.7485 35.3545 28.6491 35.5605 28.5496 35.7664C28.2512 36.3843 27.9464 37.015 27.6416 37.6586C27.3111 38.3569 26.9774 39.0713 26.6373 39.7986C26.4673 40.1654 26.2972 40.5355 26.124 40.912C25.6074 42.0383 25.0844 43.2 24.555 44.3971C23.9037 45.8709 23.2395 47.4027 22.5658 48.9924C21.9241 50.508 21.2727 52.0784 20.6118 53.7003C19.9861 55.2417 19.3509 56.8314 18.7092 58.4726C18.138 59.9335 17.5573 61.4363 16.9766 62.981C16.9477 63.055 16.9188 63.1322 16.8932 63.2062C16.3156 64.738 15.7317 66.3148 15.1413 67.9302C15.1285 67.9656 15.1157 68.0043 15.0996 68.0397L17.8878 67.7339C17.8332 67.7243 17.7755 67.7179 17.7209 67.705C21.0546 67.2866 25.4887 64.7895 28.3539 61.7034C29.6726 60.2811 30.8725 58.6045 31.9795 56.6415C32.8041 55.1806 33.5773 53.5587 34.3153 51.7663C34.9602 50.1991 35.5794 48.5032 36.1762 46.6625C35.4093 47.068 34.5334 47.3641 33.5645 47.57C33.3944 47.6054 33.2212 47.6408 33.0479 47.6698C32.8714 47.702 32.695 47.7277 32.5153 47.7534C32.5185 47.7534 32.5185 47.7502 32.5217 47.7502C35.6307 46.5499 37.5911 44.2362 39.0157 41.3979C38.1975 41.9578 36.8692 42.6883 35.2746 43.0423C35.0596 43.0906 34.835 43.1292 34.6104 43.1614C34.5559 43.171 34.4981 43.1807 34.4436 43.1871C34.4468 43.1871 34.4468 43.1871 34.4468 43.1839H34.45C35.5281 42.7302 36.4393 42.2249 37.2286 41.6264C37.3986 41.4977 37.5622 41.3657 37.7195 41.2306C37.9601 41.0214 38.1911 40.8026 38.4093 40.5709C38.5505 40.4229 38.6852 40.2716 38.8168 40.1139C39.1248 39.7439 39.4167 39.3448 39.6863 38.9136C39.7697 38.7817 39.8499 38.6465 39.9301 38.5082C40.0328 38.3086 40.1322 38.1124 40.2285 37.9193C40.6616 37.044 41.0114 36.262 41.2873 35.5766C41.4253 35.2355 41.5472 34.9169 41.6499 34.6208C41.6916 34.5018 41.7301 34.3891 41.7686 34.2797C41.8777 33.9515 41.9675 33.6587 42.0381 33.4012C42.144 33.0151 42.2081 32.7093 42.2434 32.4873C42.1375 32.571 42.0156 32.6546 41.8809 32.7351C40.9408 33.2982 39.3301 33.8099 38.0339 34.048C38.0146 34.0512 37.9954 34.0545 37.9761 34.0577C37.8478 34.0802 37.7162 34.0995 37.5847 34.122C37.6072 34.1124 37.6296 34.0995 37.6521 34.0899L28.8929 35.052C28.8801 35.0874 28.864 35.1196 28.848 35.1518Z" fill="url(#paint5_linear_9_119)"/>
<path d="M38.7073 17.3928C37.9277 18.5931 37.0774 19.9543 36.1598 21.4957C36.1117 21.5762 36.0636 21.6598 36.0154 21.7403C35.2261 23.0757 34.3855 24.5431 33.5032 26.1489C32.7396 27.5359 31.9471 29.0226 31.1193 30.6219C30.4006 32.0153 29.6562 33.4924 28.8926 35.0563L37.6518 34.0941C40.2025 32.9164 41.3447 31.8512 42.4517 30.3098C42.7468 29.885 43.042 29.4409 43.334 28.9808C44.2324 27.5713 45.1179 26.0202 45.904 24.4788C46.6644 22.9889 47.3382 21.5118 47.8515 20.1828C48.1788 19.3364 48.4419 18.548 48.6248 17.8562C48.7852 17.2447 48.9103 16.6687 49.0066 16.1152C45.6056 16.6977 41.4249 17.2576 38.7073 17.3928Z" fill="url(#paint6_linear_9_119)"/>
<path d="M33.0482 47.6738C32.8718 47.706 32.6953 47.7318 32.5156 47.7575C32.6953 47.735 32.8718 47.706 33.0482 47.6738Z" fill="#BE202E"/>
<path opacity="0.35" d="M33.0482 47.6738C32.8718 47.706 32.6953 47.7318 32.5156 47.7575C32.6953 47.735 32.8718 47.706 33.0482 47.6738Z" fill="#BE202E"/>
<path d="M33.0482 47.6738C32.8718 47.706 32.6953 47.7318 32.5156 47.7575C32.6953 47.735 32.8718 47.706 33.0482 47.6738Z" fill="url(#paint7_linear_9_119)"/>
</g>
<defs>
<linearGradient id="paint0_linear_9_119" x1="37.9599" y1="12.8885" x2="57.3829" y2="7.50427" gradientUnits="userSpaceOnUse">
<stop stop-color="#F69923"/>
<stop offset="0.3123" stop-color="#F79A23"/>
<stop offset="0.8383" stop-color="#E97826"/>
</linearGradient>
<linearGradient id="paint1_linear_9_119" x1="-4.53741" y1="100.281" x2="35.1431" y2="15.4345" gradientUnits="userSpaceOnUse">
<stop offset="0.3233" stop-color="#9E2064"/>
<stop offset="0.6302" stop-color="#C92037"/>
<stop offset="0.7514" stop-color="#CD2335"/>
<stop offset="1" stop-color="#E97826"/>
</linearGradient>
<linearGradient id="paint2_linear_9_119" x1="8.72351" y1="94.0012" x2="32.3692" y2="43.4407" gradientUnits="userSpaceOnUse">
<stop stop-color="#282662"/>
<stop offset="0.0954839" stop-color="#662E8D"/>
<stop offset="0.7882" stop-color="#9F2064"/>
<stop offset="0.9487" stop-color="#CD2032"/>
</linearGradient>
<linearGradient id="paint3_linear_9_119" x1="-3.10682" y1="95.1415" x2="36.5737" y2="10.2946" gradientUnits="userSpaceOnUse">
<stop offset="0.3233" stop-color="#9E2064"/>
<stop offset="0.6302" stop-color="#C92037"/>
<stop offset="0.7514" stop-color="#CD2335"/>
<stop offset="1" stop-color="#E97826"/>
</linearGradient>
<linearGradient id="paint4_linear_9_119" x1="0.917641" y1="89.4833" x2="21.771" y2="44.8937" gradientUnits="userSpaceOnUse">
<stop stop-color="#282662"/>
<stop offset="0.0954839" stop-color="#662E8D"/>
<stop offset="0.7882" stop-color="#9F2064"/>
<stop offset="0.9487" stop-color="#CD2032"/>
</linearGradient>
<linearGradient id="paint5_linear_9_119" x1="5.65704" y1="99.2403" x2="45.3376" y2="14.3934" gradientUnits="userSpaceOnUse">
<stop offset="0.3233" stop-color="#9E2064"/>
<stop offset="0.6302" stop-color="#C92037"/>
<stop offset="0.7514" stop-color="#CD2335"/>
<stop offset="1" stop-color="#E97826"/>
</linearGradient>
<linearGradient id="paint6_linear_9_119" x1="2.7719" y1="104.307" x2="42.4524" y2="19.4598" gradientUnits="userSpaceOnUse">
<stop offset="0.3233" stop-color="#9E2064"/>
<stop offset="0.6302" stop-color="#C92037"/>
<stop offset="0.7514" stop-color="#CD2335"/>
<stop offset="1" stop-color="#E97826"/>
</linearGradient>
<linearGradient id="paint7_linear_9_119" x1="8.26422" y1="100.46" x2="47.9442" y2="15.6135" gradientUnits="userSpaceOnUse">
<stop offset="0.3233" stop-color="#9E2064"/>
<stop offset="0.6302" stop-color="#C92037"/>
<stop offset="0.7514" stop-color="#CD2335"/>
<stop offset="1" stop-color="#E97826"/>
</linearGradient>
</defs>
</svg>
