<svg width="235" height="130" viewBox="0 0 235 130" fill="none" xmlns="http://www.w3.org/2000/svg">
<mask id="mask0_9_136" style="mask-type:alpha" maskUnits="userSpaceOnUse" x="0" y="0" width="235" height="130">
<rect width="235" height="130" fill="#2400FF"/>
</mask>
<g mask="url(#mask0_9_136)">
<mask id="mask1_9_136" style="mask-type:luminance" maskUnits="userSpaceOnUse" x="80" y="9" width="83" height="115">
<path d="M152.301 35.4228C152.041 33.9963 150.745 33.0885 149.318 33.283C148.799 33.3478 148.28 33.6072 147.891 33.9963L134.404 47.4838L123.834 27.3174C123.186 26.0205 121.63 25.5666 120.333 26.215C119.879 26.4744 119.49 26.8635 119.23 27.3174L113.459 38.3408L98.9344 11.2361C98.2859 10.0041 96.6648 9.48533 95.4328 10.1986C94.7195 10.5877 94.2008 11.301 94.0711 12.0791L80 101.953L117.545 123.027C119.879 124.324 122.797 124.324 125.131 123.027L163 101.953L152.301 35.4228Z" fill="white"/>
</mask>
<g mask="url(#mask1_9_136)">
<path d="M80 101.953L94.0711 12.0792C94.2656 10.6527 95.6273 9.68 97.0539 9.93937C97.832 10.0691 98.5453 10.5878 98.9344 11.3011L113.459 38.4058L119.23 27.3823C119.879 26.0855 121.435 25.6316 122.732 26.28C123.186 26.5394 123.575 26.9284 123.834 27.3823L163 101.953H80Z" fill="#FFA000"/>
<path opacity="0.12" d="M127.984 10.5234L59.25 4.6875V129.188L80 101.953L127.984 10.5234Z" fill="url(#paint0_linear_9_136)"/>
<path d="M128.568 66.9379L113.459 38.3418L80 101.954L128.568 66.9379Z" fill="#F57C00"/>
<path opacity="0.2" d="M59.25 4.6875H183.75V129.188H59.25V4.6875Z" fill="url(#paint1_linear_9_136)"/>
<path d="M163 101.953L152.236 35.3584C151.977 33.9318 150.68 33.024 149.253 33.2185C148.734 33.2834 148.216 33.5428 147.827 33.9318L80 101.953L117.545 123.027C119.879 124.324 122.797 124.324 125.131 123.027L163 101.953Z" fill="#FFCA28"/>
<path opacity="0.2" d="M125.131 122.379C122.797 123.675 119.879 123.675 117.545 122.379L80.0648 101.369L80 101.953L117.545 123.027C119.879 124.324 122.797 124.324 125.131 123.027L163 101.953L162.935 101.369L125.131 122.379Z" fill="#A52714"/>
<path d="M152.301 35.4238C152.041 33.9972 150.745 33.0894 149.318 33.284C148.799 33.3488 148.28 33.6082 147.891 33.9972L134.404 47.4847L123.834 27.3183C123.186 26.0215 121.63 25.5676 120.333 26.216C119.879 26.4754 119.49 26.8644 119.23 27.3183L113.459 38.3418L98.9344 11.2371C98.2859 10.0051 96.6648 9.48631 95.4328 10.1996C94.7195 10.5887 94.2008 11.3019 94.0711 12.0801L80 101.953L117.545 123.028C119.879 124.325 122.797 124.325 125.131 123.028L163 101.953L152.301 35.4238Z" fill="url(#paint2_linear_9_136)"/>
</g>
</g>
<defs>
<linearGradient id="paint0_linear_9_136" x1="96.172" y1="71.1848" x2="90.9845" y2="68.4743" gradientUnits="userSpaceOnUse">
<stop stop-color="#A52714"/>
<stop offset="0.4" stop-color="#A52714" stop-opacity="0.5"/>
<stop offset="0.8" stop-color="#A52714" stop-opacity="0"/>
</linearGradient>
<linearGradient id="paint1_linear_9_136" x1="118.212" y1="63.6499" x2="115.891" y2="61.3285" gradientUnits="userSpaceOnUse">
<stop stop-color="#A52714" stop-opacity="0.8"/>
<stop offset="0.5" stop-color="#A52714" stop-opacity="0.21"/>
<stop offset="1" stop-color="#A52714" stop-opacity="0"/>
</linearGradient>
<linearGradient id="paint2_linear_9_136" x1="77.7571" y1="29.9625" x2="164.445" y2="116.65" gradientUnits="userSpaceOnUse">
<stop stop-color="white" stop-opacity="0.1"/>
<stop offset="1" stop-color="white" stop-opacity="0"/>
</linearGradient>
</defs>
</svg>
